G75*
%MOIN*%
%OFA0B0*%
%FSLAX24Y24*%
%IPPOS*%
%LPD*%
%AMOC8*
5,1,8,0,0,1.08239X$1,22.5*
%
%ADD10R,0.0580X0.0300*%
%ADD11R,0.0300X0.0580*%
%ADD12R,0.0674X0.0674*%
%ADD13C,0.0674*%
%ADD14R,0.0440X0.0395*%
%ADD15C,0.0430*%
%ADD16C,0.0671*%
D10*
X009990Y002078D03*
X009990Y002393D03*
X009990Y002708D03*
X009990Y003023D03*
X009990Y003337D03*
X009990Y003652D03*
X009990Y003967D03*
X009990Y004282D03*
X013370Y004282D03*
X013370Y003967D03*
X013370Y003652D03*
X013370Y003337D03*
X013370Y003023D03*
X013370Y002708D03*
X013370Y002393D03*
X013370Y002078D03*
D11*
X012782Y001490D03*
X012467Y001490D03*
X012152Y001490D03*
X011837Y001490D03*
X011523Y001490D03*
X011208Y001490D03*
X010893Y001490D03*
X010578Y001490D03*
X010578Y004870D03*
X010893Y004870D03*
X011208Y004870D03*
X011523Y004870D03*
X011837Y004870D03*
X012152Y004870D03*
X012467Y004870D03*
X012782Y004870D03*
D12*
X015180Y005180D03*
X022180Y002680D03*
X007180Y001680D03*
X003180Y002180D03*
X006680Y005180D03*
D13*
X005680Y005180D03*
X003180Y004180D03*
X003180Y003180D03*
X006180Y002680D03*
X007180Y002680D03*
X007180Y003680D03*
X006180Y003680D03*
X006180Y001680D03*
X016180Y005180D03*
X017180Y005180D03*
X018180Y005180D03*
X019180Y005180D03*
X020180Y005180D03*
X022180Y003680D03*
D14*
X008956Y003180D03*
X008404Y003180D03*
D15*
X009430Y002430D03*
X009430Y001930D03*
X011660Y002140D03*
X012805Y003305D03*
X011055Y003805D03*
X010820Y003400D03*
X012500Y004030D03*
X012850Y004310D03*
X013200Y004660D03*
X014805Y004180D03*
X017180Y004180D03*
X013550Y005360D03*
X010055Y004930D03*
X007430Y005180D03*
X019930Y002430D03*
D16*
X004430Y000930D03*
X006680Y000805D03*
X013430Y000930D03*
X015180Y000930D03*
M02*
