G75*
%MOIN*%
%OFA0B0*%
%FSLAX24Y24*%
%IPPOS*%
%LPD*%
%AMOC8*
5,1,8,0,0,1.08239X$1,22.5*
%
%ADD10C,0.0060*%
%ADD11C,0.0030*%
%ADD12C,0.0050*%
%ADD13C,0.0040*%
D10*
X000924Y001835D02*
X001137Y002049D01*
X001137Y002476D01*
X001355Y002369D02*
X001355Y001942D01*
X001461Y001835D01*
X001675Y001835D01*
X001782Y001942D01*
X001999Y001942D02*
X002106Y001835D01*
X002319Y001835D01*
X002426Y001942D01*
X001999Y001942D02*
X001999Y002369D01*
X002106Y002476D01*
X002319Y002476D01*
X002426Y002369D01*
X001782Y002369D02*
X001675Y002476D01*
X001461Y002476D01*
X001355Y002369D01*
X000710Y002476D02*
X000710Y002049D01*
X000924Y001835D01*
X001030Y002835D02*
X000710Y002835D01*
X000710Y003476D01*
X001030Y003476D01*
X001137Y003369D01*
X001137Y002942D01*
X001030Y002835D01*
X001355Y002835D02*
X001355Y003262D01*
X001568Y003476D01*
X001782Y003262D01*
X001782Y002835D01*
X002213Y002835D02*
X002213Y003476D01*
X002426Y003476D02*
X001999Y003476D01*
X001782Y003155D02*
X001355Y003155D01*
X001355Y003835D02*
X001355Y004476D01*
X001782Y003835D01*
X001782Y004476D01*
X001999Y004476D02*
X002319Y004476D01*
X002426Y004369D01*
X002426Y003942D01*
X002319Y003835D01*
X001999Y003835D01*
X001999Y004476D01*
X001137Y004369D02*
X001030Y004476D01*
X000817Y004476D01*
X000710Y004369D01*
X000710Y003942D01*
X000817Y003835D01*
X001030Y003835D01*
X001137Y003942D01*
X001137Y004155D01*
X000924Y004155D01*
X010300Y004420D02*
X010300Y001800D01*
X013060Y001800D01*
X013060Y004560D01*
X010440Y004560D01*
X010300Y004420D01*
X010459Y004260D02*
X010461Y004283D01*
X010467Y004306D01*
X010476Y004327D01*
X010489Y004347D01*
X010505Y004364D01*
X010523Y004378D01*
X010543Y004389D01*
X010565Y004397D01*
X010588Y004401D01*
X010612Y004401D01*
X010635Y004397D01*
X010657Y004389D01*
X010677Y004378D01*
X010695Y004364D01*
X010711Y004347D01*
X010724Y004327D01*
X010733Y004306D01*
X010739Y004283D01*
X010741Y004260D01*
X010739Y004237D01*
X010733Y004214D01*
X010724Y004193D01*
X010711Y004173D01*
X010695Y004156D01*
X010677Y004142D01*
X010657Y004131D01*
X010635Y004123D01*
X010612Y004119D01*
X010588Y004119D01*
X010565Y004123D01*
X010543Y004131D01*
X010523Y004142D01*
X010505Y004156D01*
X010489Y004173D01*
X010476Y004193D01*
X010467Y004214D01*
X010461Y004237D01*
X010459Y004260D01*
X022710Y005030D02*
X023137Y005030D01*
X022924Y001744D02*
X022924Y001317D01*
X022710Y001530D02*
X023137Y001530D01*
D11*
X011290Y005195D02*
X011096Y005195D01*
X011193Y005195D02*
X011193Y005485D01*
X011096Y005388D01*
X010995Y005437D02*
X010947Y005485D01*
X010850Y005485D01*
X010801Y005437D01*
X010801Y005243D01*
X010850Y005195D01*
X010947Y005195D01*
X010995Y005243D01*
X010702Y005195D02*
X010605Y005195D01*
X010653Y005195D02*
X010653Y005485D01*
X010605Y005485D02*
X010702Y005485D01*
D12*
X007180Y005680D02*
X007180Y004680D01*
X006180Y004680D01*
X006180Y005680D01*
X007180Y005680D01*
X006180Y005680D02*
X005180Y005680D01*
X005180Y004680D01*
X006180Y004680D01*
X005680Y004180D02*
X005680Y001180D01*
X006680Y001180D01*
X006680Y002180D01*
X007680Y002180D01*
X007680Y004180D01*
X005680Y004180D01*
X003680Y004680D02*
X002680Y004680D01*
X002680Y002680D01*
X003680Y002680D01*
X003680Y004680D01*
X008168Y003456D02*
X008168Y002904D01*
X009192Y002904D01*
X009192Y003456D01*
X008168Y003456D01*
X008621Y003357D02*
X008621Y003003D01*
X008739Y003003D02*
X008739Y003357D01*
X007680Y002180D02*
X007680Y001180D01*
X006680Y001180D01*
X003680Y001680D02*
X003680Y002680D01*
X002680Y002680D02*
X002680Y001680D01*
X003680Y001680D01*
X014680Y004680D02*
X015680Y004680D01*
X015680Y005680D01*
X014680Y005680D01*
X014680Y004680D01*
X015680Y004680D02*
X020680Y004680D01*
X020680Y005680D01*
X015680Y005680D01*
X021680Y004180D02*
X022680Y004180D01*
X022680Y003180D01*
X022680Y002180D01*
X021680Y002180D01*
X021680Y003180D01*
X022680Y003180D01*
X021680Y003180D02*
X021680Y004180D01*
D13*
X001091Y001485D02*
X001091Y001025D01*
X001398Y001025D02*
X001398Y001485D01*
X001551Y001485D02*
X001551Y001025D01*
X001858Y001025D01*
X002012Y001102D02*
X002089Y001025D01*
X002242Y001025D01*
X002319Y001102D01*
X002319Y001409D01*
X002242Y001485D01*
X002089Y001485D01*
X002012Y001409D01*
X002012Y001102D01*
X001705Y001255D02*
X001551Y001255D01*
X001551Y001485D02*
X001858Y001485D01*
X002472Y001485D02*
X002702Y001485D01*
X002779Y001409D01*
X002779Y001255D01*
X002702Y001178D01*
X002472Y001178D01*
X002472Y001025D02*
X002472Y001485D01*
X002933Y001485D02*
X003086Y001485D01*
X003009Y001485D02*
X003009Y001025D01*
X002933Y001025D02*
X003086Y001025D01*
X003240Y001025D02*
X003547Y001485D01*
X003240Y001485D02*
X003547Y001025D01*
X005025Y001200D02*
X005025Y001353D01*
X005025Y001277D02*
X005485Y001277D01*
X005485Y001353D02*
X005485Y001200D01*
X005408Y001507D02*
X005485Y001584D01*
X005485Y001737D01*
X005408Y001814D01*
X005332Y001814D01*
X005255Y001737D01*
X005255Y001584D01*
X005178Y001507D01*
X005101Y001507D01*
X005025Y001584D01*
X005025Y001737D01*
X005101Y001814D01*
X005025Y001967D02*
X005025Y002198D01*
X005101Y002274D01*
X005255Y002274D01*
X005332Y002198D01*
X005332Y001967D01*
X005485Y001967D02*
X005025Y001967D01*
X004410Y001950D02*
X004410Y002257D01*
X004410Y002103D02*
X003950Y002103D01*
X004103Y001950D01*
X001398Y001025D02*
X001091Y001485D01*
X007950Y001603D02*
X008410Y001603D01*
X008410Y001450D02*
X008410Y001757D01*
X008103Y001450D02*
X007950Y001603D01*
X008109Y003594D02*
X008109Y004054D01*
X008340Y004054D01*
X008416Y003977D01*
X008416Y003824D01*
X008340Y003747D01*
X008109Y003747D01*
X008263Y003747D02*
X008416Y003594D01*
X008570Y003594D02*
X008877Y003594D01*
X008723Y003594D02*
X008723Y004054D01*
X008570Y003901D01*
X007910Y004950D02*
X007910Y005257D01*
X007910Y005103D02*
X007450Y005103D01*
X007603Y004950D01*
X004973Y005250D02*
X004973Y005710D01*
X004667Y005710D02*
X004667Y005250D01*
X004513Y005327D02*
X004436Y005250D01*
X004283Y005250D01*
X004206Y005327D01*
X004206Y005634D01*
X004283Y005710D01*
X004436Y005710D01*
X004513Y005634D01*
X004667Y005480D02*
X004973Y005480D01*
X004053Y005327D02*
X004053Y005710D01*
X003746Y005710D02*
X003746Y005327D01*
X003823Y005250D01*
X003976Y005250D01*
X004053Y005327D01*
X003592Y005327D02*
X003592Y005634D01*
X003516Y005710D01*
X003362Y005710D01*
X003285Y005634D01*
X003285Y005327D01*
X003362Y005250D01*
X003516Y005250D01*
X003592Y005327D01*
X002978Y005250D02*
X002978Y005710D01*
X002825Y005710D02*
X003132Y005710D01*
X014950Y004257D02*
X015103Y004410D01*
X015103Y003950D01*
X014950Y003950D02*
X015257Y003950D01*
X017825Y004075D02*
X017825Y004382D01*
X017978Y004535D01*
X018132Y004382D01*
X018132Y004075D01*
X018285Y004152D02*
X018362Y004075D01*
X018516Y004075D01*
X018592Y004152D01*
X018746Y004152D02*
X018823Y004075D01*
X018976Y004075D01*
X019053Y004152D01*
X019206Y004075D02*
X019513Y004075D01*
X019667Y004075D02*
X019973Y004075D01*
X019667Y004075D02*
X019667Y004535D01*
X019513Y004535D02*
X019206Y004535D01*
X019206Y004075D01*
X018746Y004152D02*
X018746Y004459D01*
X018823Y004535D01*
X018976Y004535D01*
X019053Y004459D01*
X019206Y004305D02*
X019360Y004305D01*
X018592Y004459D02*
X018516Y004535D01*
X018362Y004535D01*
X018285Y004459D01*
X018285Y004152D01*
X018132Y004305D02*
X017825Y004305D01*
X022775Y003985D02*
X023235Y003985D01*
X023235Y004138D02*
X023235Y003831D01*
X022928Y003831D02*
X022775Y003985D01*
X022775Y003678D02*
X022775Y003371D01*
X022928Y003217D02*
X023235Y003217D01*
X023005Y003217D02*
X023005Y002910D01*
X022928Y002910D02*
X022775Y003064D01*
X022928Y003217D01*
X022928Y002910D02*
X023235Y002910D01*
X023158Y002757D02*
X023082Y002757D01*
X023005Y002680D01*
X023005Y002450D01*
X023235Y002450D02*
X022775Y002450D01*
X022775Y002680D01*
X022851Y002757D01*
X022928Y002757D01*
X023005Y002680D01*
X023158Y002757D02*
X023235Y002680D01*
X023235Y002450D01*
X022103Y001910D02*
X022103Y001450D01*
X021950Y001450D02*
X022257Y001450D01*
X021950Y001757D02*
X022103Y001910D01*
X022775Y003524D02*
X023235Y003524D01*
M02*
