G75*
%MOIN*%
%OFA0B0*%
%FSLAX24Y24*%
%IPPOS*%
%LPD*%
%AMOC8*
5,1,8,0,0,1.08239X$1,22.5*
%
%ADD10C,0.0000*%
%ADD11C,0.0040*%
%ADD12R,0.0500X0.0220*%
%ADD13R,0.0220X0.0500*%
%ADD14R,0.0594X0.0594*%
%ADD15C,0.0594*%
%ADD16R,0.0360X0.0315*%
%ADD17C,0.0160*%
%ADD18C,0.0350*%
%ADD19C,0.0070*%
%ADD20C,0.0591*%
D10*
X000180Y000180D02*
X000180Y006180D01*
X023680Y006180D01*
X023680Y000180D01*
X000180Y000180D01*
D11*
X014825Y002027D02*
X014902Y001950D01*
X015055Y001950D01*
X015132Y002027D01*
X015132Y002103D01*
X015055Y002180D01*
X014902Y002180D01*
X014825Y002257D01*
X014825Y002334D01*
X014902Y002410D01*
X015055Y002410D01*
X015132Y002334D01*
X015285Y002257D02*
X015285Y002027D01*
X015362Y001950D01*
X015592Y001950D01*
X015592Y002257D01*
X015746Y002257D02*
X015976Y002257D01*
X016053Y002180D01*
X016053Y002027D01*
X015976Y001950D01*
X015746Y001950D01*
X015746Y001797D02*
X015746Y002257D01*
X016206Y002180D02*
X016283Y002257D01*
X016436Y002257D01*
X016513Y002180D01*
X016513Y002103D01*
X016206Y002103D01*
X016206Y002027D02*
X016206Y002180D01*
X016206Y002027D02*
X016283Y001950D01*
X016436Y001950D01*
X016667Y001950D02*
X016667Y002257D01*
X016820Y002257D02*
X016897Y002257D01*
X016820Y002257D02*
X016667Y002103D01*
X017050Y002180D02*
X017127Y002257D01*
X017280Y002257D01*
X017357Y002180D01*
X017357Y001950D01*
X017511Y002027D02*
X017587Y001950D01*
X017741Y001950D01*
X017818Y002027D01*
X017818Y002180D01*
X017741Y002257D01*
X017587Y002257D01*
X017511Y002180D01*
X017511Y002027D01*
X017050Y001950D02*
X017050Y002410D01*
X017971Y002180D02*
X017971Y002027D01*
X018048Y001950D01*
X018201Y001950D01*
X018278Y002027D01*
X018278Y002180D01*
X018201Y002257D01*
X018048Y002257D01*
X017971Y002180D01*
X018431Y002257D02*
X018662Y002257D01*
X018738Y002180D01*
X018738Y002027D01*
X018662Y001950D01*
X018431Y001950D01*
X018431Y001797D02*
X018431Y002257D01*
X018892Y002180D02*
X018969Y002103D01*
X019122Y002103D01*
X019199Y002027D01*
X019122Y001950D01*
X018892Y001950D01*
X018892Y002180D02*
X018969Y002257D01*
X019199Y002257D01*
X019212Y002950D02*
X019519Y003257D01*
X019519Y003334D01*
X019443Y003410D01*
X019289Y003410D01*
X019212Y003334D01*
X019059Y003180D02*
X018752Y003180D01*
X018598Y003103D02*
X018598Y003027D01*
X018522Y002950D01*
X018368Y002950D01*
X018292Y003027D01*
X018292Y003180D01*
X018522Y003180D01*
X018598Y003103D01*
X018445Y003334D02*
X018292Y003180D01*
X017985Y003410D02*
X017831Y003257D01*
X017678Y003180D02*
X017371Y003180D01*
X017217Y003027D02*
X017141Y002950D01*
X016987Y002950D01*
X016910Y003027D01*
X017217Y003334D01*
X017217Y003027D01*
X016910Y003027D02*
X016910Y003334D01*
X016987Y003410D01*
X017141Y003410D01*
X017217Y003334D01*
X016603Y003410D02*
X016450Y003257D01*
X016603Y003410D02*
X016603Y002950D01*
X016450Y002950D02*
X016757Y002950D01*
X016053Y002950D02*
X016053Y003410D01*
X015746Y003410D02*
X016053Y002950D01*
X015746Y002950D02*
X015746Y003410D01*
X015592Y003410D02*
X015285Y003410D01*
X015285Y002950D01*
X015592Y002950D01*
X015439Y003180D02*
X015285Y003180D01*
X015132Y003027D02*
X015132Y003334D01*
X015055Y003410D01*
X014825Y003410D01*
X014825Y002950D01*
X015055Y002950D01*
X015132Y003027D01*
X017831Y002950D02*
X018138Y002950D01*
X017985Y002950D02*
X017985Y003410D01*
X018445Y003334D02*
X018598Y003410D01*
X019673Y003334D02*
X019673Y003027D01*
X019980Y003334D01*
X019980Y003027D01*
X019903Y002950D01*
X019749Y002950D01*
X019673Y003027D01*
X019519Y002950D02*
X019212Y002950D01*
X020133Y002950D02*
X020440Y002950D01*
X020287Y002950D02*
X020287Y003410D01*
X020133Y003257D01*
X019980Y003334D02*
X019903Y003410D01*
X019749Y003410D01*
X019673Y003334D01*
X020594Y003334D02*
X020670Y003410D01*
X020824Y003410D01*
X020900Y003334D01*
X020900Y003257D01*
X020824Y003180D01*
X020900Y003103D01*
X020900Y003027D01*
X020824Y002950D01*
X020670Y002950D01*
X020594Y003027D01*
X020747Y003180D02*
X020824Y003180D01*
D12*
X013370Y003023D03*
X013370Y003337D03*
X013370Y003652D03*
X013370Y003967D03*
X013370Y004282D03*
X009990Y004282D03*
X009990Y003967D03*
X009990Y003652D03*
X009990Y003337D03*
X009990Y003023D03*
X009990Y002708D03*
X009990Y002393D03*
X009990Y002078D03*
X013370Y002078D03*
X013370Y002393D03*
X013370Y002708D03*
D13*
X012782Y001490D03*
X012467Y001490D03*
X012152Y001490D03*
X011837Y001490D03*
X011523Y001490D03*
X011208Y001490D03*
X010893Y001490D03*
X010578Y001490D03*
X010578Y004870D03*
X010893Y004870D03*
X011208Y004870D03*
X011523Y004870D03*
X011837Y004870D03*
X012152Y004870D03*
X012467Y004870D03*
X012782Y004870D03*
D14*
X015180Y005180D03*
X022180Y002680D03*
X007180Y001680D03*
X003180Y002180D03*
X006680Y005180D03*
D15*
X005680Y005180D03*
X003180Y004180D03*
X003180Y003180D03*
X006180Y002680D03*
X007180Y002680D03*
X007180Y003680D03*
X006180Y003680D03*
X006180Y001680D03*
X016180Y005180D03*
X017180Y005180D03*
X018180Y005180D03*
X019180Y005180D03*
X020180Y005180D03*
X022180Y003680D03*
D16*
X008956Y003180D03*
X008404Y003180D03*
D17*
X008064Y002995D02*
X008064Y002956D01*
X008158Y002863D01*
X008650Y002863D01*
X008666Y002878D01*
X008706Y002855D01*
X008752Y002843D01*
X008956Y002843D01*
X009160Y002843D01*
X009205Y002855D01*
X009246Y002878D01*
X009280Y002912D01*
X009304Y002953D01*
X009316Y002999D01*
X009316Y003180D01*
X009316Y003361D01*
X009304Y003407D01*
X009280Y003448D01*
X009246Y003482D01*
X009205Y003505D01*
X009160Y003517D01*
X008956Y003517D01*
X008956Y003180D01*
X009316Y003180D01*
X008956Y003180D01*
X008956Y003180D01*
X008956Y003180D01*
X008956Y002843D01*
X008956Y003180D01*
X008956Y003180D01*
X008956Y003517D01*
X008752Y003517D01*
X008706Y003505D01*
X008666Y003482D01*
X008650Y003497D01*
X008635Y003497D01*
X008635Y005095D01*
X010308Y005095D01*
X010308Y004554D01*
X010401Y004460D01*
X012305Y004460D01*
X012305Y004309D01*
X012216Y004220D01*
X012165Y004097D01*
X012165Y003963D01*
X012216Y003840D01*
X012310Y003746D01*
X012433Y003695D01*
X012567Y003695D01*
X012690Y003746D01*
X012779Y003835D01*
X012960Y003835D01*
X012960Y003603D01*
X012872Y003640D01*
X012738Y003640D01*
X012615Y003589D01*
X012521Y003495D01*
X012470Y003372D01*
X012470Y003238D01*
X012521Y003115D01*
X012615Y003021D01*
X012738Y002970D01*
X012872Y002970D01*
X012940Y002998D01*
X012940Y002889D01*
X012952Y002843D01*
X012960Y002830D01*
X012960Y002585D01*
X012952Y002572D01*
X012940Y002526D01*
X012940Y002393D01*
X013370Y002393D01*
X013800Y002393D01*
X013800Y002526D01*
X013788Y002572D01*
X013780Y002585D01*
X013780Y002830D01*
X013788Y002843D01*
X013800Y002889D01*
X013800Y003023D01*
X013800Y003156D01*
X013788Y003202D01*
X013780Y003215D01*
X013780Y004459D01*
X013745Y004494D01*
X013745Y005081D01*
X013834Y005170D01*
X013885Y005293D01*
X013885Y005427D01*
X013848Y005515D01*
X014707Y005515D01*
X014703Y005501D01*
X014703Y005198D01*
X015162Y005198D01*
X015162Y005162D01*
X015198Y005162D01*
X015198Y005198D01*
X015657Y005198D01*
X015657Y005501D01*
X015653Y005515D01*
X015869Y005515D01*
X015793Y005439D01*
X015723Y005271D01*
X015723Y005089D01*
X015793Y004921D01*
X015921Y004793D01*
X016089Y004723D01*
X016271Y004723D01*
X016439Y004793D01*
X016567Y004921D01*
X016637Y005089D01*
X016637Y005271D01*
X016567Y005439D01*
X016491Y005515D01*
X016869Y005515D01*
X016793Y005439D01*
X016723Y005271D01*
X016723Y005089D01*
X016793Y004921D01*
X016921Y004793D01*
X016985Y004766D01*
X016985Y004459D01*
X016896Y004370D01*
X016845Y004247D01*
X016845Y004113D01*
X016896Y003990D01*
X016990Y003896D01*
X017113Y003845D01*
X017247Y003845D01*
X017370Y003896D01*
X017464Y003990D01*
X017515Y004113D01*
X017515Y004247D01*
X017464Y004370D01*
X017375Y004459D01*
X017375Y004766D01*
X017439Y004793D01*
X017567Y004921D01*
X017637Y005089D01*
X017637Y005271D01*
X017567Y005439D01*
X017491Y005515D01*
X017869Y005515D01*
X017793Y005439D01*
X017723Y005271D01*
X017723Y005089D01*
X017793Y004921D01*
X017921Y004793D01*
X018089Y004723D01*
X018271Y004723D01*
X018439Y004793D01*
X018567Y004921D01*
X018637Y005089D01*
X018637Y005271D01*
X018567Y005439D01*
X018491Y005515D01*
X018869Y005515D01*
X018793Y005439D01*
X018723Y005271D01*
X018723Y005089D01*
X018793Y004921D01*
X018921Y004793D01*
X019089Y004723D01*
X019271Y004723D01*
X019439Y004793D01*
X019567Y004921D01*
X019637Y005089D01*
X019637Y005271D01*
X019567Y005439D01*
X019491Y005515D01*
X019869Y005515D01*
X019793Y005439D01*
X019723Y005271D01*
X019723Y005089D01*
X019793Y004921D01*
X019921Y004793D01*
X020089Y004723D01*
X020271Y004723D01*
X020439Y004793D01*
X020567Y004921D01*
X020637Y005089D01*
X020637Y005271D01*
X020567Y005439D01*
X020439Y005567D01*
X020325Y005614D01*
X020325Y005700D01*
X023200Y005700D01*
X023200Y000660D01*
X015554Y000660D01*
X015566Y000672D01*
X015635Y000839D01*
X015635Y001021D01*
X015566Y001188D01*
X015438Y001316D01*
X015271Y001385D01*
X015089Y001385D01*
X014922Y001316D01*
X014794Y001188D01*
X014725Y001021D01*
X014725Y000839D01*
X014794Y000672D01*
X014806Y000660D01*
X004804Y000660D01*
X004816Y000672D01*
X004885Y000839D01*
X004885Y001021D01*
X004816Y001188D01*
X004688Y001316D01*
X004521Y001385D01*
X004339Y001385D01*
X004172Y001316D01*
X004044Y001188D01*
X003975Y001021D01*
X003975Y000839D01*
X004044Y000672D01*
X004056Y000660D01*
X000660Y000660D01*
X000660Y005700D01*
X012144Y005700D01*
X011724Y005280D01*
X011645Y005280D01*
X011645Y005301D01*
X011575Y005371D01*
X011461Y005485D01*
X008359Y005485D01*
X008245Y005371D01*
X008245Y003497D01*
X008158Y003497D01*
X008064Y003404D01*
X008064Y003385D01*
X007531Y003385D01*
X007567Y003421D01*
X007637Y003589D01*
X007637Y003771D01*
X007567Y003939D01*
X007439Y004067D01*
X007271Y004137D01*
X007089Y004137D01*
X006921Y004067D01*
X006793Y003939D01*
X006723Y003771D01*
X006723Y003589D01*
X006793Y003421D01*
X006921Y003293D01*
X006985Y003266D01*
X006985Y003109D01*
X006996Y003098D01*
X006921Y003067D01*
X006793Y002939D01*
X006723Y002771D01*
X006723Y002589D01*
X006793Y002421D01*
X006839Y002375D01*
X006761Y002375D01*
X006610Y002525D01*
X006637Y002589D01*
X006637Y002771D01*
X006567Y002939D01*
X006439Y003067D01*
X006271Y003137D01*
X006089Y003137D01*
X005921Y003067D01*
X005793Y002939D01*
X005723Y002771D01*
X005723Y002589D01*
X005793Y002421D01*
X005921Y002293D01*
X006089Y002223D01*
X006271Y002223D01*
X006335Y002250D01*
X006599Y001985D01*
X006723Y001985D01*
X006723Y001317D01*
X006817Y001223D01*
X007361Y001223D01*
X007750Y000834D01*
X007755Y000813D01*
X007806Y000778D01*
X007849Y000735D01*
X007871Y000735D01*
X007881Y000728D01*
X007924Y000685D01*
X007946Y000685D01*
X007964Y000673D01*
X008024Y000685D01*
X012511Y000685D01*
X012625Y000799D01*
X012905Y001079D01*
X012905Y001080D01*
X012959Y001080D01*
X013052Y001174D01*
X013052Y001806D01*
X012959Y001900D01*
X011894Y001900D01*
X011939Y001945D01*
X012960Y001945D01*
X012960Y001901D01*
X013054Y001808D01*
X013686Y001808D01*
X013780Y001901D01*
X013780Y002200D01*
X013788Y002213D01*
X013800Y002259D01*
X013800Y002393D01*
X013370Y002393D01*
X013370Y002393D01*
X013370Y002393D01*
X012940Y002393D01*
X012940Y002335D01*
X011939Y002335D01*
X011850Y002424D01*
X011727Y002475D01*
X011593Y002475D01*
X011470Y002424D01*
X011376Y002330D01*
X011325Y002207D01*
X011325Y002073D01*
X011376Y001950D01*
X011426Y001900D01*
X010926Y001900D01*
X011000Y001974D01*
X011000Y003112D01*
X011010Y003116D01*
X011104Y003210D01*
X011155Y003333D01*
X011155Y003467D01*
X011149Y003481D01*
X011245Y003521D01*
X011339Y003615D01*
X011390Y003738D01*
X011390Y003872D01*
X011339Y003995D01*
X011245Y004089D01*
X011122Y004140D01*
X010988Y004140D01*
X010865Y004089D01*
X010771Y003995D01*
X010750Y003945D01*
X010400Y003945D01*
X010400Y004459D01*
X010306Y004552D01*
X009674Y004552D01*
X009580Y004459D01*
X009580Y003530D01*
X009572Y003517D01*
X009560Y003471D01*
X009560Y003337D01*
X009560Y003204D01*
X009572Y003158D01*
X009580Y003145D01*
X009580Y002900D01*
X009572Y002887D01*
X009560Y002841D01*
X009560Y002739D01*
X009497Y002765D01*
X009363Y002765D01*
X009240Y002714D01*
X009146Y002620D01*
X009095Y002497D01*
X009095Y002363D01*
X009146Y002240D01*
X009206Y002180D01*
X009146Y002120D01*
X009095Y001997D01*
X009095Y001863D01*
X009146Y001740D01*
X009240Y001646D01*
X009363Y001595D01*
X009497Y001595D01*
X009620Y001646D01*
X009714Y001740D01*
X009742Y001808D01*
X010306Y001808D01*
X010400Y001901D01*
X010400Y002515D01*
X010408Y002528D01*
X010420Y002574D01*
X010420Y002708D01*
X010420Y002841D01*
X010416Y002855D01*
X010481Y002855D01*
X010595Y002969D01*
X010595Y003151D01*
X010610Y003136D01*
X010610Y002136D01*
X010529Y002055D01*
X010415Y001941D01*
X010415Y001900D01*
X010401Y001900D01*
X010308Y001806D01*
X010308Y001250D01*
X008136Y001250D01*
X007875Y001511D01*
X007875Y002261D01*
X007761Y002375D01*
X007521Y002375D01*
X007567Y002421D01*
X007637Y002589D01*
X007637Y002771D01*
X007567Y002939D01*
X007511Y002995D01*
X008064Y002995D01*
X008146Y002875D02*
X007594Y002875D01*
X007637Y002716D02*
X009245Y002716D01*
X009240Y002875D02*
X009569Y002875D01*
X009626Y002708D02*
X009990Y002708D01*
X009990Y002753D01*
X009990Y002708D01*
X009990Y002708D01*
X009990Y002708D01*
X010420Y002708D01*
X009990Y002708D01*
X009990Y002708D01*
X009626Y002708D01*
X009626Y002708D01*
X009990Y002708D02*
X009990Y002663D01*
X009990Y002663D01*
X009990Y002708D01*
X009990Y002708D01*
X009990Y002716D02*
X009990Y002716D01*
X009990Y002753D02*
X009990Y002753D01*
X010420Y002716D02*
X010610Y002716D01*
X010610Y002875D02*
X010500Y002875D01*
X010595Y003033D02*
X010610Y003033D01*
X011000Y003033D02*
X012603Y003033D01*
X012489Y003192D02*
X011085Y003192D01*
X011155Y003350D02*
X012470Y003350D01*
X012535Y003509D02*
X011215Y003509D01*
X011360Y003667D02*
X012960Y003667D01*
X012960Y003826D02*
X012769Y003826D01*
X012231Y003826D02*
X011390Y003826D01*
X011343Y003984D02*
X012165Y003984D01*
X012184Y004143D02*
X010400Y004143D01*
X010400Y004301D02*
X012297Y004301D01*
X012305Y004460D02*
X010399Y004460D01*
X010308Y004618D02*
X008635Y004618D01*
X008635Y004460D02*
X009581Y004460D01*
X009580Y004301D02*
X008635Y004301D01*
X008635Y004143D02*
X009580Y004143D01*
X009580Y003984D02*
X008635Y003984D01*
X008635Y003826D02*
X009580Y003826D01*
X009580Y003667D02*
X008635Y003667D01*
X008635Y003509D02*
X008719Y003509D01*
X008956Y003509D02*
X008956Y003509D01*
X009193Y003509D02*
X009570Y003509D01*
X009560Y003350D02*
X009316Y003350D01*
X009316Y003192D02*
X009563Y003192D01*
X009560Y003337D02*
X009990Y003337D01*
X009990Y003337D01*
X009560Y003337D01*
X008956Y003350D02*
X008956Y003350D01*
X008956Y003192D02*
X008956Y003192D01*
X008956Y003033D02*
X008956Y003033D01*
X009316Y003033D02*
X009580Y003033D01*
X008956Y002875D02*
X008956Y002875D01*
X008672Y002875D02*
X008662Y002875D01*
X009120Y002558D02*
X007624Y002558D01*
X007545Y002399D02*
X009095Y002399D01*
X009146Y002241D02*
X007875Y002241D01*
X007875Y002082D02*
X009130Y002082D01*
X009095Y001924D02*
X007875Y001924D01*
X007875Y001765D02*
X009136Y001765D01*
X009336Y001607D02*
X007875Y001607D01*
X007938Y001448D02*
X010308Y001448D01*
X010308Y001607D02*
X009524Y001607D01*
X009724Y001765D02*
X010308Y001765D01*
X010400Y001924D02*
X010415Y001924D01*
X010949Y001924D02*
X011403Y001924D01*
X011325Y002082D02*
X011000Y002082D01*
X011000Y002241D02*
X011339Y002241D01*
X011445Y002399D02*
X011000Y002399D01*
X011000Y002558D02*
X012948Y002558D01*
X012940Y002399D02*
X011875Y002399D01*
X011000Y002716D02*
X012960Y002716D01*
X012944Y002875D02*
X011000Y002875D01*
X010610Y002558D02*
X010416Y002558D01*
X010400Y002399D02*
X010610Y002399D01*
X010610Y002241D02*
X010400Y002241D01*
X010400Y002082D02*
X010556Y002082D01*
X011917Y001924D02*
X012960Y001924D01*
X013052Y001765D02*
X015566Y001765D01*
X015566Y001770D02*
X015566Y001722D01*
X015671Y001617D01*
X015820Y001617D01*
X015926Y001722D01*
X015926Y001770D01*
X016051Y001770D01*
X016080Y001800D01*
X016127Y001847D01*
X016127Y001847D01*
X016129Y001849D01*
X016132Y001847D01*
X016208Y001770D01*
X016511Y001770D01*
X016551Y001811D01*
X016592Y001770D01*
X016741Y001770D01*
X016847Y001875D01*
X016847Y002029D01*
X016870Y002053D01*
X016870Y001875D01*
X016976Y001770D01*
X017125Y001770D01*
X017204Y001849D01*
X017283Y001770D01*
X017432Y001770D01*
X017472Y001811D01*
X017513Y001770D01*
X017815Y001770D01*
X017875Y001830D01*
X017892Y001847D01*
X017892Y001847D01*
X017894Y001849D01*
X017973Y001770D01*
X018251Y001770D01*
X018251Y001722D01*
X018357Y001617D01*
X018506Y001617D01*
X018611Y001722D01*
X018611Y001770D01*
X018736Y001770D01*
X018777Y001811D01*
X018817Y001770D01*
X019197Y001770D01*
X019256Y001830D01*
X019273Y001847D01*
X019319Y001892D01*
X019379Y001952D01*
X019379Y002101D01*
X019338Y002142D01*
X019379Y002182D01*
X019379Y002331D01*
X019273Y002437D01*
X018894Y002437D01*
X018834Y002377D01*
X018815Y002358D01*
X018736Y002437D01*
X018357Y002437D01*
X018316Y002396D01*
X018276Y002437D01*
X017973Y002437D01*
X017912Y002375D01*
X017894Y002358D01*
X017815Y002437D01*
X017513Y002437D01*
X017451Y002375D01*
X017434Y002358D01*
X017432Y002360D01*
X017355Y002437D01*
X017230Y002437D01*
X017230Y002485D01*
X017125Y002590D01*
X016976Y002590D01*
X016870Y002485D01*
X016870Y002437D01*
X016745Y002437D01*
X016743Y002435D01*
X016741Y002437D01*
X016592Y002437D01*
X016551Y002396D01*
X016511Y002437D01*
X016208Y002437D01*
X016149Y002377D01*
X016129Y002358D01*
X016127Y002360D01*
X016051Y002437D01*
X015671Y002437D01*
X015669Y002435D01*
X015667Y002437D01*
X015518Y002437D01*
X015439Y002358D01*
X015360Y002437D01*
X015283Y002437D01*
X015235Y002485D01*
X015130Y002590D01*
X014827Y002590D01*
X014766Y002529D01*
X014722Y002485D01*
X014707Y002470D01*
X014645Y002408D01*
X014645Y002182D01*
X014686Y002142D01*
X014645Y002101D01*
X014645Y001952D01*
X014827Y001770D01*
X015130Y001770D01*
X015191Y001832D01*
X015206Y001847D01*
X015206Y001847D01*
X015209Y001849D01*
X015288Y001770D01*
X015566Y001770D01*
X015926Y001765D02*
X018251Y001765D01*
X018611Y001765D02*
X023200Y001765D01*
X023200Y001924D02*
X019350Y001924D01*
X019273Y001847D02*
X019273Y001847D01*
X019379Y002082D02*
X023200Y002082D01*
X023200Y002241D02*
X022589Y002241D01*
X022587Y002239D02*
X022621Y002273D01*
X022645Y002314D01*
X022657Y002359D01*
X022657Y002662D01*
X022198Y002662D01*
X022198Y002698D01*
X022657Y002698D01*
X022657Y003001D01*
X022645Y003046D01*
X022621Y003087D01*
X022587Y003121D01*
X022546Y003145D01*
X022501Y003157D01*
X022198Y003157D01*
X022198Y002698D01*
X022162Y002698D01*
X022162Y002662D01*
X022198Y002662D01*
X022198Y002203D01*
X022501Y002203D01*
X022546Y002215D01*
X022587Y002239D01*
X022657Y002399D02*
X023200Y002399D01*
X023200Y002558D02*
X022657Y002558D01*
X022657Y002716D02*
X023200Y002716D01*
X023200Y002875D02*
X022657Y002875D01*
X022648Y003033D02*
X023200Y003033D01*
X023200Y003192D02*
X021080Y003192D01*
X021080Y003182D02*
X021078Y003180D01*
X021080Y003178D01*
X021080Y002952D01*
X021019Y002891D01*
X020975Y002847D01*
X020975Y002847D01*
X020960Y002832D01*
X020898Y002770D01*
X020596Y002770D01*
X020555Y002811D01*
X020515Y002770D01*
X020059Y002770D01*
X020018Y002811D01*
X019978Y002770D01*
X019675Y002770D01*
X019634Y002811D01*
X019594Y002770D01*
X019138Y002770D01*
X019032Y002875D01*
X019032Y003000D01*
X018778Y003000D01*
X018778Y002952D01*
X018719Y002892D01*
X018673Y002847D01*
X018673Y002847D01*
X018656Y002830D01*
X018596Y002770D01*
X018294Y002770D01*
X018253Y002811D01*
X018213Y002770D01*
X017757Y002770D01*
X017651Y002875D01*
X017651Y003000D01*
X017397Y003000D01*
X017397Y002952D01*
X017336Y002891D01*
X017292Y002847D01*
X017292Y002847D01*
X017277Y002832D01*
X017215Y002770D01*
X016913Y002770D01*
X016872Y002811D01*
X016831Y002770D01*
X016375Y002770D01*
X016270Y002875D01*
X016270Y003025D01*
X016349Y003103D01*
X016270Y003182D01*
X016270Y003331D01*
X016423Y003485D01*
X016423Y003485D01*
X016529Y003590D01*
X016678Y003590D01*
X016783Y003485D01*
X016783Y003461D01*
X016790Y003468D01*
X016807Y003485D01*
X016807Y003485D01*
X016853Y003531D01*
X016913Y003590D01*
X017215Y003590D01*
X017292Y003514D01*
X017391Y003414D01*
X017397Y003408D01*
X017397Y003360D01*
X017680Y003360D01*
X017805Y003485D01*
X017805Y003485D01*
X017910Y003590D01*
X018059Y003590D01*
X018165Y003485D01*
X018165Y003308D01*
X018217Y003360D01*
X018217Y003360D01*
X018288Y003431D01*
X018298Y003461D01*
X018338Y003482D01*
X018370Y003514D01*
X018403Y003514D01*
X018585Y003605D01*
X018726Y003558D01*
X018793Y003424D01*
X018772Y003360D01*
X019032Y003360D01*
X019032Y003408D01*
X019109Y003485D01*
X019109Y003485D01*
X019153Y003529D01*
X019215Y003590D01*
X019517Y003590D01*
X019596Y003511D01*
X019615Y003531D01*
X019675Y003590D01*
X019978Y003590D01*
X020054Y003514D01*
X020095Y003473D01*
X020107Y003485D01*
X020107Y003485D01*
X020212Y003590D01*
X020361Y003590D01*
X020467Y003485D01*
X020467Y003461D01*
X020490Y003485D01*
X020490Y003485D01*
X020536Y003531D01*
X020596Y003590D01*
X020898Y003590D01*
X020975Y003514D01*
X021080Y003408D01*
X021080Y003182D01*
X021080Y003033D02*
X021712Y003033D01*
X021715Y003046D02*
X021703Y003001D01*
X021703Y002698D01*
X022162Y002698D01*
X022162Y003157D01*
X021859Y003157D01*
X021814Y003145D01*
X021773Y003121D01*
X021739Y003087D01*
X021715Y003046D01*
X022162Y003033D02*
X022198Y003033D01*
X022198Y002875D02*
X022162Y002875D01*
X022162Y002716D02*
X022198Y002716D01*
X022162Y002662D02*
X021703Y002662D01*
X021703Y002359D01*
X021715Y002314D01*
X021739Y002273D01*
X021773Y002239D01*
X021814Y002215D01*
X021859Y002203D01*
X022162Y002203D01*
X022162Y002662D01*
X022162Y002558D02*
X022198Y002558D01*
X022198Y002399D02*
X022162Y002399D01*
X021703Y002399D02*
X019311Y002399D01*
X019379Y002241D02*
X021771Y002241D01*
X022162Y002241D02*
X022198Y002241D01*
X021703Y002558D02*
X017158Y002558D01*
X016943Y002558D02*
X015163Y002558D01*
X015398Y002399D02*
X015480Y002399D01*
X016088Y002399D02*
X016170Y002399D01*
X016549Y002399D02*
X016554Y002399D01*
X016167Y002810D02*
X016127Y002770D01*
X016107Y002770D01*
X016091Y002759D01*
X016035Y002770D01*
X015978Y002770D01*
X015964Y002784D01*
X015944Y002788D01*
X015913Y002835D01*
X015899Y002849D01*
X015820Y002770D01*
X015671Y002770D01*
X015669Y002772D01*
X015667Y002770D01*
X015211Y002770D01*
X015170Y002811D01*
X015130Y002770D01*
X014750Y002770D01*
X014645Y002875D01*
X014645Y003025D01*
X014645Y003336D01*
X014645Y003485D01*
X014750Y003590D01*
X015130Y003590D01*
X015170Y003550D01*
X015211Y003590D01*
X015667Y003590D01*
X015669Y003588D01*
X015671Y003590D01*
X015691Y003590D01*
X015708Y003602D01*
X015764Y003590D01*
X015820Y003590D01*
X015835Y003576D01*
X015854Y003572D01*
X015886Y003525D01*
X015899Y003511D01*
X015978Y003590D01*
X016127Y003590D01*
X016233Y003485D01*
X016233Y003004D01*
X016244Y002988D01*
X016233Y002932D01*
X016233Y002875D01*
X016219Y002861D01*
X016215Y002842D01*
X016167Y002810D01*
X016232Y002875D02*
X016271Y002875D01*
X016278Y003033D02*
X016233Y003033D01*
X016233Y003192D02*
X016270Y003192D01*
X016289Y003350D02*
X016233Y003350D01*
X016209Y003509D02*
X016447Y003509D01*
X016760Y003509D02*
X016831Y003509D01*
X017297Y003509D02*
X017828Y003509D01*
X018141Y003509D02*
X018365Y003509D01*
X018207Y003350D02*
X018165Y003350D01*
X018751Y003509D02*
X019133Y003509D01*
X020059Y003509D02*
X020130Y003509D01*
X020443Y003509D02*
X020514Y003509D01*
X020980Y003509D02*
X021757Y003509D01*
X021723Y003589D02*
X021793Y003421D01*
X021921Y003293D01*
X022089Y003223D01*
X022271Y003223D01*
X022439Y003293D01*
X022567Y003421D01*
X022637Y003589D01*
X022637Y003771D01*
X022567Y003939D01*
X022439Y004067D01*
X022271Y004137D01*
X022089Y004137D01*
X021921Y004067D01*
X021793Y003939D01*
X021723Y003771D01*
X021723Y003589D01*
X021723Y003667D02*
X013780Y003667D01*
X013780Y003509D02*
X014669Y003509D01*
X014645Y003350D02*
X013780Y003350D01*
X013791Y003192D02*
X014645Y003192D01*
X014645Y003033D02*
X013800Y003033D01*
X013800Y003023D02*
X013370Y003023D01*
X013370Y003023D01*
X013800Y003023D01*
X013796Y002875D02*
X014646Y002875D01*
X014794Y002558D02*
X013792Y002558D01*
X013800Y002399D02*
X014645Y002399D01*
X014722Y002485D02*
X014722Y002485D01*
X014645Y002241D02*
X013795Y002241D01*
X013780Y002082D02*
X014645Y002082D01*
X014674Y001924D02*
X013780Y001924D01*
X013052Y001607D02*
X023200Y001607D01*
X023200Y001448D02*
X013052Y001448D01*
X013052Y001290D02*
X014896Y001290D01*
X014770Y001131D02*
X013010Y001131D01*
X012798Y000973D02*
X014725Y000973D01*
X014735Y000814D02*
X012640Y000814D01*
X010308Y001290D02*
X008096Y001290D01*
X007453Y001131D02*
X004840Y001131D01*
X004714Y001290D02*
X005906Y001290D01*
X005930Y001272D02*
X005997Y001238D01*
X006068Y001215D01*
X006142Y001203D01*
X006162Y001203D01*
X006162Y001662D01*
X005703Y001662D01*
X005703Y001642D01*
X005715Y001568D01*
X005738Y001497D01*
X005772Y001430D01*
X005816Y001369D01*
X005869Y001316D01*
X005930Y001272D01*
X006162Y001290D02*
X006198Y001290D01*
X006198Y001203D02*
X006218Y001203D01*
X006292Y001215D01*
X006363Y001238D01*
X006430Y001272D01*
X006491Y001316D01*
X006544Y001369D01*
X006588Y001430D01*
X006622Y001497D01*
X006645Y001568D01*
X006657Y001642D01*
X006657Y001662D01*
X006198Y001662D01*
X006198Y001698D01*
X006162Y001698D01*
X006162Y001662D01*
X006198Y001662D01*
X006198Y001203D01*
X006454Y001290D02*
X006751Y001290D01*
X006723Y001448D02*
X006597Y001448D01*
X006651Y001607D02*
X006723Y001607D01*
X006657Y001698D02*
X006657Y001718D01*
X006645Y001792D01*
X006622Y001863D01*
X006588Y001930D01*
X006544Y001991D01*
X006491Y002044D01*
X006430Y002088D01*
X006363Y002122D01*
X006292Y002145D01*
X006218Y002157D01*
X006198Y002157D01*
X006198Y001698D01*
X006657Y001698D01*
X006649Y001765D02*
X006723Y001765D01*
X006723Y001924D02*
X006591Y001924D01*
X006502Y002082D02*
X006438Y002082D01*
X006344Y002241D02*
X006313Y002241D01*
X006162Y002157D02*
X006142Y002157D01*
X006068Y002145D01*
X005997Y002122D01*
X005930Y002088D01*
X005869Y002044D01*
X005816Y001991D01*
X005772Y001930D01*
X005738Y001863D01*
X005715Y001792D01*
X005703Y001718D01*
X005703Y001698D01*
X006162Y001698D01*
X006162Y002157D01*
X006162Y002082D02*
X006198Y002082D01*
X006047Y002241D02*
X003657Y002241D01*
X003657Y002198D02*
X003657Y002501D01*
X003645Y002546D01*
X003621Y002587D01*
X003587Y002621D01*
X003546Y002645D01*
X003501Y002657D01*
X003198Y002657D01*
X003198Y002198D01*
X003162Y002198D01*
X003162Y002657D01*
X002859Y002657D01*
X002814Y002645D01*
X002773Y002621D01*
X002739Y002587D01*
X002715Y002546D01*
X002703Y002501D01*
X002703Y002198D01*
X003162Y002198D01*
X003162Y002162D01*
X003198Y002162D01*
X003198Y002198D01*
X003657Y002198D01*
X003657Y002162D02*
X003198Y002162D01*
X003198Y001703D01*
X003501Y001703D01*
X003546Y001715D01*
X003587Y001739D01*
X003621Y001773D01*
X003645Y001814D01*
X003657Y001859D01*
X003657Y002162D01*
X003657Y002082D02*
X005922Y002082D01*
X005769Y001924D02*
X003657Y001924D01*
X003613Y001765D02*
X005711Y001765D01*
X006162Y001765D02*
X006198Y001765D01*
X006198Y001924D02*
X006162Y001924D01*
X006162Y001607D02*
X006198Y001607D01*
X006198Y001448D02*
X006162Y001448D01*
X005763Y001448D02*
X000660Y001448D01*
X000660Y001607D02*
X005709Y001607D01*
X004885Y000973D02*
X007612Y000973D01*
X007754Y000814D02*
X004875Y000814D01*
X003985Y000814D02*
X000660Y000814D01*
X000660Y000973D02*
X003975Y000973D01*
X004020Y001131D02*
X000660Y001131D01*
X000660Y001290D02*
X004146Y001290D01*
X003162Y001703D02*
X002859Y001703D01*
X002814Y001715D01*
X002773Y001739D01*
X002739Y001773D01*
X002715Y001814D01*
X002703Y001859D01*
X002703Y002162D01*
X003162Y002162D01*
X003162Y001703D01*
X003162Y001765D02*
X003198Y001765D01*
X003198Y001924D02*
X003162Y001924D01*
X002747Y001765D02*
X000660Y001765D01*
X000660Y001924D02*
X002703Y001924D01*
X002703Y002082D02*
X000660Y002082D01*
X000660Y002241D02*
X002703Y002241D01*
X003162Y002241D02*
X003198Y002241D01*
X003198Y002082D02*
X003162Y002082D01*
X003162Y002399D02*
X003198Y002399D01*
X003198Y002558D02*
X003162Y002558D01*
X002722Y002558D02*
X000660Y002558D01*
X000660Y002399D02*
X002703Y002399D01*
X002921Y002793D02*
X003089Y002723D01*
X003271Y002723D01*
X003439Y002793D01*
X003567Y002921D01*
X003637Y003089D01*
X003637Y003271D01*
X003567Y003439D01*
X003439Y003567D01*
X003271Y003637D01*
X003089Y003637D01*
X002921Y003567D01*
X002793Y003439D01*
X002723Y003271D01*
X002723Y003089D01*
X002793Y002921D01*
X002921Y002793D01*
X002839Y002875D02*
X000660Y002875D01*
X000660Y002716D02*
X005723Y002716D01*
X005766Y002875D02*
X003521Y002875D01*
X003614Y003033D02*
X005887Y003033D01*
X005921Y003293D02*
X006089Y003223D01*
X006271Y003223D01*
X006439Y003293D01*
X006567Y003421D01*
X006637Y003589D01*
X006637Y003771D01*
X006567Y003939D01*
X006439Y004067D01*
X006271Y004137D01*
X006089Y004137D01*
X005921Y004067D01*
X005793Y003939D01*
X005723Y003771D01*
X005723Y003589D01*
X005793Y003421D01*
X005921Y003293D01*
X005864Y003350D02*
X003604Y003350D01*
X003637Y003192D02*
X006985Y003192D01*
X006864Y003350D02*
X006496Y003350D01*
X006603Y003509D02*
X006757Y003509D01*
X006723Y003667D02*
X006637Y003667D01*
X006614Y003826D02*
X006746Y003826D01*
X006838Y003984D02*
X006522Y003984D01*
X005838Y003984D02*
X003593Y003984D01*
X003567Y003921D02*
X003637Y004089D01*
X003637Y004271D01*
X003567Y004439D01*
X003439Y004567D01*
X003271Y004637D01*
X003089Y004637D01*
X002921Y004567D01*
X002793Y004439D01*
X002723Y004271D01*
X002723Y004089D01*
X002793Y003921D01*
X002921Y003793D01*
X003089Y003723D01*
X003271Y003723D01*
X003439Y003793D01*
X003567Y003921D01*
X003472Y003826D02*
X005746Y003826D01*
X005723Y003667D02*
X000660Y003667D01*
X000660Y003509D02*
X002862Y003509D01*
X002756Y003350D02*
X000660Y003350D01*
X000660Y003192D02*
X002723Y003192D01*
X002746Y003033D02*
X000660Y003033D01*
X000660Y003826D02*
X002888Y003826D01*
X002767Y003984D02*
X000660Y003984D01*
X000660Y004143D02*
X002723Y004143D01*
X002736Y004301D02*
X000660Y004301D01*
X000660Y004460D02*
X002813Y004460D01*
X003044Y004618D02*
X000660Y004618D01*
X000660Y004777D02*
X005460Y004777D01*
X005421Y004793D02*
X005589Y004723D01*
X005771Y004723D01*
X005939Y004793D01*
X006067Y004921D01*
X006137Y005089D01*
X006137Y005271D01*
X006067Y005439D01*
X005939Y005567D01*
X005771Y005637D01*
X005589Y005637D01*
X005421Y005567D01*
X005293Y005439D01*
X005223Y005271D01*
X005223Y005089D01*
X005293Y004921D01*
X005421Y004793D01*
X005900Y004777D02*
X006264Y004777D01*
X006223Y004817D02*
X006317Y004723D01*
X007043Y004723D01*
X007137Y004817D01*
X007137Y005543D01*
X007043Y005637D01*
X006317Y005637D01*
X006223Y005543D01*
X006223Y004817D01*
X006223Y004935D02*
X006073Y004935D01*
X006137Y005094D02*
X006223Y005094D01*
X006223Y005252D02*
X006137Y005252D01*
X006079Y005411D02*
X006223Y005411D01*
X006249Y005569D02*
X005935Y005569D01*
X005425Y005569D02*
X000660Y005569D01*
X000660Y005411D02*
X005281Y005411D01*
X005223Y005252D02*
X000660Y005252D01*
X000660Y005094D02*
X005223Y005094D01*
X005287Y004935D02*
X000660Y004935D01*
X003316Y004618D02*
X008245Y004618D01*
X008245Y004460D02*
X003547Y004460D01*
X003624Y004301D02*
X008245Y004301D01*
X008245Y004143D02*
X003637Y004143D01*
X003498Y003509D02*
X005757Y003509D01*
X006473Y003033D02*
X006887Y003033D01*
X006766Y002875D02*
X006594Y002875D01*
X006637Y002716D02*
X006723Y002716D01*
X006736Y002558D02*
X006624Y002558D01*
X006737Y002399D02*
X006815Y002399D01*
X005815Y002399D02*
X003657Y002399D01*
X003638Y002558D02*
X005736Y002558D01*
X007603Y003509D02*
X008245Y003509D01*
X008245Y003667D02*
X007637Y003667D01*
X007614Y003826D02*
X008245Y003826D01*
X008245Y003984D02*
X007522Y003984D01*
X007096Y004777D02*
X008245Y004777D01*
X008245Y004935D02*
X007137Y004935D01*
X007137Y005094D02*
X008245Y005094D01*
X008245Y005252D02*
X007137Y005252D01*
X007137Y005411D02*
X008285Y005411D01*
X008635Y005094D02*
X010308Y005094D01*
X010308Y004935D02*
X008635Y004935D01*
X008635Y004777D02*
X010308Y004777D01*
X011535Y005411D02*
X011855Y005411D01*
X012013Y005569D02*
X007111Y005569D01*
X010400Y003984D02*
X010767Y003984D01*
X013780Y003984D02*
X016902Y003984D01*
X016845Y004143D02*
X013780Y004143D01*
X013780Y004301D02*
X016868Y004301D01*
X016985Y004460D02*
X013779Y004460D01*
X013745Y004618D02*
X016985Y004618D01*
X017375Y004618D02*
X023200Y004618D01*
X023200Y004460D02*
X017375Y004460D01*
X017492Y004301D02*
X023200Y004301D01*
X023200Y004143D02*
X017515Y004143D01*
X017458Y003984D02*
X021838Y003984D01*
X021746Y003826D02*
X013780Y003826D01*
X014773Y004739D02*
X014814Y004715D01*
X014859Y004703D01*
X015162Y004703D01*
X015162Y005162D01*
X014703Y005162D01*
X014703Y004859D01*
X014715Y004814D01*
X014739Y004773D01*
X014773Y004739D01*
X014737Y004777D02*
X013745Y004777D01*
X013745Y004935D02*
X014703Y004935D01*
X014703Y005094D02*
X013757Y005094D01*
X013868Y005252D02*
X014703Y005252D01*
X014703Y005411D02*
X013885Y005411D01*
X015162Y005094D02*
X015198Y005094D01*
X015198Y005162D02*
X015198Y004703D01*
X015501Y004703D01*
X015546Y004715D01*
X015587Y004739D01*
X015621Y004773D01*
X015645Y004814D01*
X015657Y004859D01*
X015657Y005162D01*
X015198Y005162D01*
X015657Y005094D02*
X015723Y005094D01*
X015787Y004935D02*
X015657Y004935D01*
X015198Y004935D02*
X015162Y004935D01*
X015162Y004777D02*
X015198Y004777D01*
X015623Y004777D02*
X015960Y004777D01*
X016400Y004777D02*
X016960Y004777D01*
X017400Y004777D02*
X017960Y004777D01*
X018400Y004777D02*
X018960Y004777D01*
X018787Y004935D02*
X018573Y004935D01*
X018637Y005094D02*
X018723Y005094D01*
X018723Y005252D02*
X018637Y005252D01*
X018579Y005411D02*
X018781Y005411D01*
X019579Y005411D02*
X019781Y005411D01*
X019723Y005252D02*
X019637Y005252D01*
X019637Y005094D02*
X019723Y005094D01*
X019787Y004935D02*
X019573Y004935D01*
X019400Y004777D02*
X019960Y004777D01*
X020400Y004777D02*
X023200Y004777D01*
X023200Y004935D02*
X020573Y004935D01*
X020637Y005094D02*
X023200Y005094D01*
X023200Y005252D02*
X020637Y005252D01*
X020579Y005411D02*
X023200Y005411D01*
X023200Y005569D02*
X020435Y005569D01*
X017781Y005411D02*
X017579Y005411D01*
X017637Y005252D02*
X017723Y005252D01*
X017723Y005094D02*
X017637Y005094D01*
X017573Y004935D02*
X017787Y004935D01*
X016787Y004935D02*
X016573Y004935D01*
X016637Y005094D02*
X016723Y005094D01*
X016723Y005252D02*
X016637Y005252D01*
X016579Y005411D02*
X016781Y005411D01*
X015781Y005411D02*
X015657Y005411D01*
X015657Y005252D02*
X015723Y005252D01*
X021080Y003350D02*
X021864Y003350D01*
X022496Y003350D02*
X023200Y003350D01*
X023200Y003509D02*
X022603Y003509D01*
X022637Y003667D02*
X023200Y003667D01*
X023200Y003826D02*
X022614Y003826D01*
X022522Y003984D02*
X023200Y003984D01*
X021703Y002875D02*
X021003Y002875D01*
X021703Y002716D02*
X013780Y002716D01*
X016847Y001924D02*
X016870Y001924D01*
X017393Y002399D02*
X017475Y002399D01*
X017853Y002399D02*
X017935Y002399D01*
X018314Y002399D02*
X018319Y002399D01*
X018774Y002399D02*
X018856Y002399D01*
X018701Y002875D02*
X019033Y002875D01*
X017652Y002875D02*
X017320Y002875D01*
X015464Y001290D02*
X023200Y001290D01*
X023200Y001131D02*
X015590Y001131D01*
X015635Y000973D02*
X023200Y000973D01*
X023200Y000814D02*
X015625Y000814D01*
D18*
X011660Y002140D03*
X009430Y001930D03*
X009430Y002430D03*
X010820Y003400D03*
X011055Y003805D03*
X012500Y004030D03*
X012850Y004310D03*
X013200Y004660D03*
X014805Y004180D03*
X012805Y003305D03*
X017180Y004180D03*
X013550Y005360D03*
X010055Y004930D03*
X007430Y005180D03*
X019930Y002430D03*
D19*
X017180Y004180D02*
X017180Y005180D01*
X020130Y005220D02*
X020180Y005180D01*
X020130Y005220D02*
X020130Y005710D01*
X012430Y005710D01*
X011870Y005150D01*
X011870Y004870D01*
X011837Y004870D01*
X011523Y004870D02*
X011520Y004870D01*
X011450Y004940D01*
X011450Y005220D01*
X011380Y005290D01*
X008440Y005290D01*
X008440Y003190D01*
X008404Y003180D01*
X008370Y003190D01*
X007180Y003190D01*
X007180Y003680D01*
X009555Y003305D02*
X009555Y002805D01*
X009652Y002708D01*
X009990Y002708D01*
X009980Y002420D02*
X009440Y002420D01*
X009430Y002430D01*
X009980Y002420D02*
X009990Y002393D01*
X009990Y002078D02*
X009578Y002078D01*
X009430Y001930D01*
X010610Y001860D02*
X010610Y001510D01*
X010578Y001490D01*
X010610Y001860D02*
X010805Y002055D01*
X010805Y003305D01*
X010820Y003400D01*
X010400Y003470D02*
X010330Y003540D01*
X010330Y003750D01*
X011000Y003750D01*
X011055Y003805D01*
X010330Y003540D02*
X010260Y003610D01*
X010050Y003610D01*
X009990Y003652D01*
X010400Y003470D02*
X010400Y003050D01*
X010050Y003050D01*
X009990Y003023D01*
X009980Y003050D01*
X009958Y003305D02*
X009555Y003305D01*
X009958Y003305D02*
X009990Y003337D01*
X012500Y004030D02*
X012500Y004870D01*
X012467Y004870D01*
X012220Y004870D02*
X012152Y004870D01*
X012220Y004870D02*
X012220Y005150D01*
X012360Y005290D01*
X013200Y005290D01*
X013200Y004660D01*
X013550Y004450D02*
X013550Y005360D01*
X013550Y004450D02*
X013410Y004310D01*
X013370Y004282D01*
X013340Y004030D02*
X012850Y004030D01*
X012850Y004310D01*
X013340Y004030D02*
X013370Y003967D01*
X013340Y003400D02*
X012900Y003400D01*
X012805Y003305D01*
X013340Y003400D02*
X013370Y003337D01*
X013410Y003400D01*
X013340Y002140D02*
X011660Y002140D01*
X013340Y002140D02*
X013370Y002078D01*
X012782Y001490D02*
X012780Y001440D01*
X012710Y001370D01*
X012710Y001160D01*
X012430Y000880D01*
X008005Y000880D01*
X007930Y000930D01*
X007180Y001680D01*
X007680Y001430D02*
X008055Y001055D01*
X012305Y001055D01*
X012430Y001180D01*
X012430Y001440D01*
X012467Y001490D01*
X007680Y001430D02*
X007680Y002180D01*
X006680Y002180D01*
X006180Y002680D01*
D20*
X004430Y000930D03*
X006680Y000805D03*
X013430Y000930D03*
X015180Y000930D03*
M02*
