G75*
%MOIN*%
%OFA0B0*%
%FSLAX24Y24*%
%IPPOS*%
%LPD*%
%AMOC8*
5,1,8,0,0,1.08239X$1,22.5*
%
%ADD10R,0.0674X0.0674*%
%ADD11C,0.0674*%
%ADD12R,0.0789X0.0671*%
%ADD13R,0.0440X0.0395*%
%ADD14R,0.0395X0.0440*%
%ADD15R,0.0710X0.0710*%
%ADD16C,0.0430*%
%ADD17C,0.0671*%
D10*
X003180Y002180D03*
X007180Y001680D03*
X006680Y005180D03*
X015180Y005180D03*
X022180Y002680D03*
D11*
X022180Y003680D03*
X020180Y005180D03*
X019180Y005180D03*
X018180Y005180D03*
X017180Y005180D03*
X016180Y005180D03*
X007180Y003680D03*
X006180Y003680D03*
X006180Y002680D03*
X007180Y002680D03*
X006180Y001680D03*
X003180Y003180D03*
X003180Y004180D03*
X005680Y005180D03*
D12*
X010180Y002771D03*
X010180Y001589D03*
D13*
X008831Y001930D03*
X008279Y001930D03*
X008279Y002555D03*
X008831Y002555D03*
X015404Y004180D03*
X015956Y004180D03*
X011456Y005055D03*
X010904Y005055D03*
X008706Y005180D03*
X008154Y005180D03*
X004956Y005180D03*
X004404Y005180D03*
D14*
X004180Y003456D03*
X004180Y002904D03*
D15*
X020680Y002432D03*
X020680Y003928D03*
D16*
X017180Y004180D03*
X014805Y004180D03*
X013200Y004660D03*
X012850Y004310D03*
X012500Y004030D03*
X011055Y003805D03*
X010820Y003400D03*
X012805Y003305D03*
X011660Y002140D03*
X009430Y001930D03*
X009430Y002430D03*
X010055Y004930D03*
X007430Y005180D03*
X013550Y005360D03*
X019930Y002430D03*
D17*
X004430Y000930D03*
X006680Y000805D03*
X013430Y000930D03*
X015180Y000930D03*
M02*
