%
M48
M72
T01C0.0190
T02C0.0394
%
T01
X9430Y1930
X9430Y2430
X11660Y2140
X12805Y3305
X11055Y3805
X10820Y3400
X12500Y4030
X12850Y4310
X13200Y4660
X14805Y4180
X17180Y4180
X13550Y5360
X10055Y4930
X7430Y5180
X19930Y2430
T02
X4430Y930
X6180Y1680
X7180Y1680
X6680Y805
X3180Y2180
X3180Y3180
X3180Y4180
X5680Y5180
X6680Y5180
X6180Y3680
X7180Y3680
X7180Y2680
X6180Y2680
X13430Y930
X15180Y930
X22180Y2680
X22180Y3680
X20180Y5180
X19180Y5180
X18180Y5180
X17180Y5180
X16180Y5180
X15180Y5180
M30
