G75*
%MOIN*%
%OFA0B0*%
%FSLAX24Y24*%
%IPPOS*%
%LPD*%
%AMOC8*
5,1,8,0,0,1.08239X$1,22.5*
%
%ADD10R,0.0594X0.0594*%
%ADD11C,0.0594*%
%ADD12R,0.0709X0.0591*%
%ADD13R,0.0360X0.0315*%
%ADD14R,0.0315X0.0360*%
%ADD15R,0.0630X0.0630*%
%ADD16C,0.0070*%
%ADD17C,0.0350*%
%ADD18C,0.0591*%
%ADD19C,0.0240*%
%ADD20C,0.0160*%
D10*
X003180Y002180D03*
X007180Y001680D03*
X006680Y005180D03*
X015180Y005180D03*
X022180Y002680D03*
D11*
X022180Y003680D03*
X020180Y005180D03*
X019180Y005180D03*
X018180Y005180D03*
X017180Y005180D03*
X016180Y005180D03*
X007180Y003680D03*
X006180Y003680D03*
X006180Y002680D03*
X007180Y002680D03*
X006180Y001680D03*
X003180Y003180D03*
X003180Y004180D03*
X005680Y005180D03*
D12*
X010180Y002771D03*
X010180Y001589D03*
D13*
X008831Y001930D03*
X008279Y001930D03*
X008279Y002555D03*
X008831Y002555D03*
X015404Y004180D03*
X015956Y004180D03*
X011456Y005055D03*
X010904Y005055D03*
X008706Y005180D03*
X008154Y005180D03*
X004956Y005180D03*
X004404Y005180D03*
D14*
X004180Y003456D03*
X004180Y002904D03*
D15*
X020680Y002432D03*
X020680Y003928D03*
D16*
X019640Y005010D02*
X019180Y004555D01*
X013680Y004555D01*
X013085Y003960D01*
X012570Y003960D01*
X012500Y004030D01*
X012850Y004310D02*
X012500Y004660D01*
X008950Y004660D01*
X008680Y004930D01*
X008680Y005154D01*
X008706Y005180D01*
X008154Y005180D02*
X007430Y005180D01*
X006970Y004870D02*
X008620Y004870D01*
X008680Y004930D01*
X010055Y004930D02*
X010180Y005055D01*
X010904Y005055D01*
X010960Y005150D01*
X010890Y005220D02*
X010904Y005055D01*
X013200Y004660D02*
X013270Y004730D01*
X018730Y004730D01*
X019180Y005180D01*
X019640Y005010D02*
X019640Y005640D01*
X018660Y005640D01*
X018240Y005220D01*
X018180Y005180D01*
X015404Y004180D02*
X014805Y004180D01*
X013550Y005360D02*
X013200Y005710D01*
X006200Y005710D01*
X005710Y005220D01*
X005680Y005180D01*
X005640Y005220D01*
X005010Y005220D01*
X004956Y005180D01*
X006680Y005180D02*
X006690Y005150D01*
X006970Y004870D01*
X004100Y004100D02*
X003180Y003180D01*
X003540Y002210D02*
X004170Y002840D01*
X004180Y002904D01*
X003540Y002210D02*
X003190Y002210D01*
X003180Y002180D01*
X007180Y002680D02*
X007180Y002700D01*
X007740Y003260D01*
X010540Y003260D01*
X011660Y002140D01*
X010180Y001589D02*
X009839Y001930D01*
X009430Y001930D01*
X008831Y001930D01*
X008956Y002430D02*
X008831Y002555D01*
X008956Y002430D02*
X009430Y002430D01*
X009839Y002430D01*
X010180Y002771D01*
X010820Y003400D02*
X010120Y004100D01*
X004100Y004100D01*
X019930Y002430D02*
X019990Y002490D01*
X020620Y002490D01*
X020680Y002432D01*
X020690Y002490D01*
X020690Y002440D01*
X020680Y002430D01*
D17*
X019930Y002430D03*
X017180Y004180D03*
X014805Y004180D03*
X013200Y004660D03*
X012850Y004310D03*
X012500Y004030D03*
X011055Y003805D03*
X010820Y003400D03*
X012805Y003305D03*
X011660Y002140D03*
X009430Y001930D03*
X009430Y002430D03*
X010055Y004930D03*
X007430Y005180D03*
X013550Y005360D03*
D18*
X013430Y000930D03*
X015180Y000930D03*
X006680Y000805D03*
X004430Y000930D03*
D19*
X006680Y000806D02*
X006717Y000775D01*
X006757Y000748D01*
X006798Y000724D01*
X006840Y000703D01*
X006884Y000685D01*
X006930Y000670D01*
X006976Y000659D01*
X007023Y000652D01*
X007071Y000648D01*
X007118Y000647D01*
X007166Y000650D01*
X007213Y000657D01*
X007259Y000667D01*
X007305Y000681D01*
X007305Y000680D02*
X013305Y000680D01*
X013304Y000713D01*
X013308Y000745D01*
X013316Y000777D01*
X013327Y000807D01*
X013341Y000837D01*
X013359Y000864D01*
X013380Y000889D01*
X013404Y000911D01*
X013430Y000931D01*
D20*
X000660Y000660D02*
X000660Y005700D01*
X005914Y005700D01*
X005828Y005613D01*
X005771Y005637D01*
X005589Y005637D01*
X005421Y005567D01*
X005293Y005439D01*
X005283Y005416D01*
X005202Y005497D01*
X004710Y005497D01*
X004694Y005482D01*
X004654Y005505D01*
X004608Y005517D01*
X004404Y005517D01*
X004200Y005517D01*
X004155Y005505D01*
X004114Y005482D01*
X004080Y005448D01*
X004056Y005407D01*
X004044Y005361D01*
X004044Y005180D01*
X004044Y004999D01*
X004056Y004953D01*
X004080Y004912D01*
X004114Y004878D01*
X004155Y004855D01*
X004200Y004843D01*
X004404Y004843D01*
X004404Y005180D01*
X004044Y005180D01*
X004404Y005180D01*
X004404Y005180D01*
X004404Y005180D01*
X004404Y005517D01*
X004404Y005180D01*
X004404Y005180D01*
X004404Y004843D01*
X004608Y004843D01*
X004654Y004855D01*
X004694Y004878D01*
X004710Y004863D01*
X005202Y004863D01*
X005283Y004944D01*
X005293Y004921D01*
X005421Y004793D01*
X005589Y004723D01*
X005771Y004723D01*
X005939Y004793D01*
X006067Y004921D01*
X006137Y005089D01*
X006137Y005271D01*
X006107Y005342D01*
X006223Y005457D01*
X006223Y004817D01*
X006317Y004723D01*
X006841Y004723D01*
X006889Y004675D01*
X008659Y004675D01*
X008869Y004465D01*
X012419Y004465D01*
X012515Y004369D01*
X012515Y004365D01*
X012433Y004365D01*
X012310Y004314D01*
X012216Y004220D01*
X012165Y004097D01*
X012165Y003963D01*
X012216Y003840D01*
X012310Y003746D01*
X012433Y003695D01*
X012567Y003695D01*
X012690Y003746D01*
X012709Y003765D01*
X013166Y003765D01*
X013280Y003879D01*
X013761Y004360D01*
X014517Y004360D01*
X014470Y004247D01*
X014470Y004113D01*
X014521Y003990D01*
X014615Y003896D01*
X014738Y003845D01*
X014872Y003845D01*
X014995Y003896D01*
X015064Y003965D01*
X015064Y003956D01*
X015158Y003863D01*
X015650Y003863D01*
X015666Y003878D01*
X015706Y003855D01*
X015752Y003843D01*
X015956Y003843D01*
X016160Y003843D01*
X016205Y003855D01*
X016246Y003878D01*
X016280Y003912D01*
X016304Y003953D01*
X016316Y003999D01*
X016316Y004180D01*
X016316Y004360D01*
X019179Y004360D01*
X019260Y004360D01*
X019261Y004360D01*
X019318Y004417D01*
X019720Y004815D01*
X019721Y004815D01*
X019778Y004872D01*
X019810Y004904D01*
X019921Y004793D01*
X020089Y004723D01*
X020271Y004723D01*
X020439Y004793D01*
X020567Y004921D01*
X020637Y005089D01*
X020637Y005271D01*
X020567Y005439D01*
X020439Y005567D01*
X020271Y005637D01*
X020089Y005637D01*
X019921Y005567D01*
X019835Y005481D01*
X019835Y005700D01*
X023200Y005700D01*
X023200Y000660D01*
X013804Y000660D01*
X013816Y000672D01*
X013885Y000839D01*
X013885Y001021D01*
X013816Y001188D01*
X013688Y001316D01*
X013521Y001385D01*
X013339Y001385D01*
X013172Y001316D01*
X013044Y001188D01*
X012975Y001021D01*
X012975Y000960D01*
X007314Y000960D01*
X007268Y000963D01*
X007259Y000960D01*
X007249Y000960D01*
X007211Y000944D01*
X007155Y000930D01*
X007120Y000931D01*
X007066Y001063D01*
X006938Y001191D01*
X006860Y001223D01*
X007543Y001223D01*
X007637Y001317D01*
X007637Y002043D01*
X007543Y002137D01*
X006817Y002137D01*
X006723Y002043D01*
X006723Y001317D01*
X006786Y001254D01*
X006771Y001260D01*
X006589Y001260D01*
X006422Y001191D01*
X006294Y001063D01*
X006225Y000896D01*
X006225Y000714D01*
X006247Y000660D01*
X000660Y000660D01*
X000660Y000814D02*
X006225Y000814D01*
X006257Y000973D02*
X000660Y000973D01*
X000660Y001131D02*
X006362Y001131D01*
X006271Y001223D02*
X006439Y001293D01*
X006567Y001421D01*
X006637Y001589D01*
X006637Y001771D01*
X006567Y001939D01*
X006439Y002067D01*
X006271Y002137D01*
X006089Y002137D01*
X005921Y002067D01*
X005793Y001939D01*
X005723Y001771D01*
X005723Y001589D01*
X005793Y001421D01*
X005921Y001293D01*
X006089Y001223D01*
X006271Y001223D01*
X006431Y001290D02*
X006751Y001290D01*
X006998Y001131D02*
X013020Y001131D01*
X013146Y001290D02*
X010694Y001290D01*
X010694Y001228D02*
X010601Y001134D01*
X009759Y001134D01*
X009666Y001228D01*
X009666Y001692D01*
X009620Y001646D01*
X009497Y001595D01*
X009363Y001595D01*
X009240Y001646D01*
X009171Y001715D01*
X009171Y001706D01*
X009077Y001613D01*
X008585Y001613D01*
X008569Y001628D01*
X008529Y001605D01*
X008483Y001593D01*
X008279Y001593D01*
X008279Y001930D01*
X007919Y001930D01*
X007919Y001749D01*
X007931Y001703D01*
X007955Y001662D01*
X007989Y001628D01*
X008030Y001605D01*
X008075Y001593D01*
X008279Y001593D01*
X008279Y001930D01*
X008279Y001930D01*
X007919Y001930D01*
X007919Y002111D01*
X007931Y002157D01*
X007955Y002198D01*
X007989Y002232D01*
X008008Y002242D01*
X007989Y002253D01*
X007955Y002287D01*
X007931Y002328D01*
X007919Y002374D01*
X007919Y002555D01*
X008279Y002555D01*
X008279Y002555D01*
X007919Y002555D01*
X007919Y002736D01*
X007931Y002782D01*
X007955Y002823D01*
X007989Y002857D01*
X008030Y002880D01*
X008075Y002892D01*
X008279Y002892D01*
X008279Y002555D01*
X008279Y002555D01*
X008279Y002555D01*
X008279Y002218D01*
X008279Y001930D01*
X008279Y001930D01*
X008279Y001930D01*
X008279Y002555D01*
X008279Y002892D01*
X008483Y002892D01*
X008529Y002880D01*
X008569Y002857D01*
X008585Y002872D01*
X009077Y002872D01*
X009171Y002779D01*
X009171Y002645D01*
X009240Y002714D01*
X009363Y002765D01*
X009497Y002765D01*
X009620Y002714D01*
X009666Y002668D01*
X009666Y003065D01*
X007821Y003065D01*
X007605Y002849D01*
X007637Y002771D01*
X007637Y002589D01*
X007567Y002421D01*
X007439Y002293D01*
X007271Y002223D01*
X007089Y002223D01*
X006921Y002293D01*
X006793Y002421D01*
X006723Y002589D01*
X006723Y002771D01*
X006793Y002939D01*
X006921Y003067D01*
X007089Y003137D01*
X007271Y003137D01*
X007321Y003116D01*
X007659Y003455D01*
X010485Y003455D01*
X010485Y003459D01*
X010039Y003905D01*
X007581Y003905D01*
X007637Y003771D01*
X007637Y003589D01*
X007567Y003421D01*
X007439Y003293D01*
X007271Y003223D01*
X007089Y003223D01*
X006921Y003293D01*
X006793Y003421D01*
X006723Y003589D01*
X006723Y003771D01*
X006779Y003905D01*
X006601Y003905D01*
X006622Y003863D01*
X006645Y003792D01*
X006657Y003718D01*
X006657Y003698D01*
X006198Y003698D01*
X006198Y003662D01*
X006657Y003662D01*
X006657Y003642D01*
X006645Y003568D01*
X006622Y003497D01*
X006588Y003430D01*
X006544Y003369D01*
X006491Y003316D01*
X006430Y003272D01*
X006363Y003238D01*
X006292Y003215D01*
X006218Y003203D01*
X006198Y003203D01*
X006198Y003662D01*
X006162Y003662D01*
X006162Y003203D01*
X006142Y003203D01*
X006068Y003215D01*
X005997Y003238D01*
X005930Y003272D01*
X005869Y003316D01*
X005816Y003369D01*
X005772Y003430D01*
X005738Y003497D01*
X005715Y003568D01*
X005703Y003642D01*
X005703Y003662D01*
X006162Y003662D01*
X006162Y003698D01*
X005703Y003698D01*
X005703Y003718D01*
X005715Y003792D01*
X005738Y003863D01*
X005759Y003905D01*
X004181Y003905D01*
X004092Y003816D01*
X004180Y003816D01*
X004180Y003456D01*
X004180Y003456D01*
X004180Y003816D01*
X004361Y003816D01*
X004407Y003804D01*
X004448Y003780D01*
X004482Y003746D01*
X004505Y003705D01*
X004517Y003660D01*
X004517Y003456D01*
X004180Y003456D01*
X004180Y003456D01*
X004180Y003456D01*
X003843Y003456D01*
X003843Y003567D01*
X003610Y003335D01*
X003637Y003271D01*
X003637Y003089D01*
X003567Y002921D01*
X003439Y002793D01*
X003271Y002723D01*
X003089Y002723D01*
X002921Y002793D01*
X002793Y002921D01*
X002723Y003089D01*
X002723Y003271D01*
X002793Y003439D01*
X002921Y003567D01*
X003089Y003637D01*
X003271Y003637D01*
X003335Y003610D01*
X004019Y004295D01*
X010201Y004295D01*
X010315Y004181D01*
X010761Y003735D01*
X010887Y003735D01*
X011010Y003684D01*
X011104Y003590D01*
X011155Y003467D01*
X011155Y003333D01*
X011104Y003210D01*
X011010Y003116D01*
X010974Y003101D01*
X011601Y002475D01*
X011727Y002475D01*
X011850Y002424D01*
X011944Y002330D01*
X011995Y002207D01*
X011995Y002073D01*
X011944Y001950D01*
X011850Y001856D01*
X011727Y001805D01*
X011593Y001805D01*
X011470Y001856D01*
X011376Y001950D01*
X011325Y002073D01*
X011325Y002199D01*
X010694Y002830D01*
X010694Y002409D01*
X010601Y002315D01*
X010000Y002315D01*
X009920Y002235D01*
X009709Y002235D01*
X009654Y002180D01*
X009709Y002125D01*
X009920Y002125D01*
X010000Y002045D01*
X010601Y002045D01*
X010694Y001951D01*
X010694Y001228D01*
X010694Y001448D02*
X023200Y001448D01*
X023200Y001607D02*
X010694Y001607D01*
X010694Y001765D02*
X023200Y001765D01*
X023200Y001924D02*
X011917Y001924D01*
X011995Y002082D02*
X020205Y002082D01*
X020205Y002051D02*
X020299Y001957D01*
X021061Y001957D01*
X021155Y002051D01*
X021155Y002813D01*
X021061Y002907D01*
X020299Y002907D01*
X020205Y002813D01*
X020205Y002685D01*
X020149Y002685D01*
X020120Y002714D01*
X019997Y002765D01*
X019863Y002765D01*
X019740Y002714D01*
X019646Y002620D01*
X019595Y002497D01*
X019595Y002363D01*
X019646Y002240D01*
X019740Y002146D01*
X019863Y002095D01*
X019997Y002095D01*
X020120Y002146D01*
X020205Y002231D01*
X020205Y002051D01*
X019646Y002241D02*
X011981Y002241D01*
X011875Y002399D02*
X019595Y002399D01*
X019620Y002558D02*
X011518Y002558D01*
X011125Y002399D02*
X010684Y002399D01*
X010694Y002558D02*
X010967Y002558D01*
X010808Y002716D02*
X010694Y002716D01*
X011201Y002875D02*
X020266Y002875D01*
X020205Y002716D02*
X020115Y002716D01*
X019745Y002716D02*
X011360Y002716D01*
X011043Y003033D02*
X021723Y003033D01*
X021723Y003043D02*
X021723Y002317D01*
X021817Y002223D01*
X022543Y002223D01*
X022637Y002317D01*
X022637Y003043D01*
X022543Y003137D01*
X021817Y003137D01*
X021723Y003043D01*
X021723Y002875D02*
X021094Y002875D01*
X021155Y002716D02*
X021723Y002716D01*
X021723Y002558D02*
X021155Y002558D01*
X021155Y002399D02*
X021723Y002399D01*
X021800Y002241D02*
X021155Y002241D01*
X021155Y002082D02*
X023200Y002082D01*
X023200Y002241D02*
X022560Y002241D01*
X022637Y002399D02*
X023200Y002399D01*
X023200Y002558D02*
X022637Y002558D01*
X022637Y002716D02*
X023200Y002716D01*
X023200Y002875D02*
X022637Y002875D01*
X022637Y003033D02*
X023200Y003033D01*
X023200Y003192D02*
X011085Y003192D01*
X011155Y003350D02*
X021836Y003350D01*
X021816Y003369D02*
X021869Y003316D01*
X021930Y003272D01*
X021997Y003238D01*
X022068Y003215D01*
X022142Y003203D01*
X022162Y003203D01*
X022162Y003662D01*
X022198Y003662D01*
X022198Y003698D01*
X022657Y003698D01*
X022657Y003718D01*
X022645Y003792D01*
X022622Y003863D01*
X022588Y003930D01*
X022544Y003991D01*
X022491Y004044D01*
X022430Y004088D01*
X022363Y004122D01*
X022292Y004145D01*
X022218Y004157D01*
X022198Y004157D01*
X022198Y003698D01*
X022162Y003698D01*
X022162Y003662D01*
X021703Y003662D01*
X021703Y003642D01*
X021715Y003568D01*
X021738Y003497D01*
X021772Y003430D01*
X021816Y003369D01*
X022162Y003350D02*
X022198Y003350D01*
X022198Y003203D02*
X022218Y003203D01*
X022292Y003215D01*
X022363Y003238D01*
X022430Y003272D01*
X022491Y003316D01*
X022544Y003369D01*
X022588Y003430D01*
X022622Y003497D01*
X022645Y003568D01*
X022657Y003642D01*
X022657Y003662D01*
X022198Y003662D01*
X022198Y003203D01*
X022524Y003350D02*
X023200Y003350D01*
X023200Y003509D02*
X022626Y003509D01*
X022198Y003509D02*
X022162Y003509D01*
X022162Y003667D02*
X021175Y003667D01*
X021175Y003589D02*
X021175Y003851D01*
X020757Y003851D01*
X020757Y003433D01*
X021019Y003433D01*
X021064Y003445D01*
X021105Y003469D01*
X021139Y003503D01*
X021163Y003544D01*
X021175Y003589D01*
X021142Y003509D02*
X021734Y003509D01*
X021703Y003698D02*
X022162Y003698D01*
X022162Y004157D01*
X022142Y004157D01*
X022068Y004145D01*
X021997Y004122D01*
X021930Y004088D01*
X021869Y004044D01*
X021816Y003991D01*
X021772Y003930D01*
X021738Y003863D01*
X021715Y003792D01*
X021703Y003718D01*
X021703Y003698D01*
X022198Y003667D02*
X023200Y003667D01*
X023200Y003826D02*
X022634Y003826D01*
X022549Y003984D02*
X023200Y003984D01*
X023200Y004143D02*
X022300Y004143D01*
X022198Y004143D02*
X022162Y004143D01*
X022060Y004143D02*
X021175Y004143D01*
X021175Y004267D02*
X021163Y004312D01*
X021139Y004354D01*
X021105Y004387D01*
X021064Y004411D01*
X021019Y004423D01*
X020757Y004423D01*
X020757Y004006D01*
X020603Y004006D01*
X020603Y004423D01*
X020341Y004423D01*
X020296Y004411D01*
X020255Y004387D01*
X020221Y004354D01*
X020197Y004312D01*
X020185Y004267D01*
X020185Y004006D01*
X020603Y004006D01*
X020603Y003851D01*
X020757Y003851D01*
X020757Y004006D01*
X021175Y004006D01*
X021175Y004267D01*
X021166Y004301D02*
X023200Y004301D01*
X023200Y004460D02*
X019361Y004460D01*
X019260Y004360D02*
X019260Y004360D01*
X019521Y004618D02*
X023200Y004618D01*
X023200Y004777D02*
X020400Y004777D01*
X019960Y004777D02*
X019681Y004777D01*
X020573Y004935D02*
X023200Y004935D01*
X023200Y005094D02*
X020637Y005094D01*
X020637Y005252D02*
X023200Y005252D01*
X023200Y005411D02*
X020579Y005411D01*
X020435Y005569D02*
X023200Y005569D01*
X019925Y005569D02*
X019835Y005569D01*
X018444Y005700D02*
X018349Y005605D01*
X018271Y005637D01*
X018089Y005637D01*
X017921Y005567D01*
X017793Y005439D01*
X017723Y005271D01*
X017723Y005089D01*
X017791Y004925D01*
X017584Y004925D01*
X017588Y004930D01*
X017622Y004997D01*
X017645Y005068D01*
X017657Y005142D01*
X017657Y005162D01*
X017198Y005162D01*
X017198Y005198D01*
X017162Y005198D01*
X017162Y005162D01*
X016703Y005162D01*
X016703Y005142D01*
X016715Y005068D01*
X016738Y004997D01*
X016772Y004930D01*
X016776Y004925D01*
X016569Y004925D01*
X016637Y005089D01*
X016637Y005271D01*
X016567Y005439D01*
X016439Y005567D01*
X016271Y005637D01*
X016089Y005637D01*
X015921Y005567D01*
X015793Y005439D01*
X015723Y005271D01*
X015723Y005089D01*
X015791Y004925D01*
X015637Y004925D01*
X015637Y005543D01*
X015543Y005637D01*
X014817Y005637D01*
X014723Y005543D01*
X014723Y004925D01*
X013409Y004925D01*
X013390Y004944D01*
X013267Y004995D01*
X013133Y004995D01*
X013010Y004944D01*
X012916Y004850D01*
X012865Y004727D01*
X012865Y004645D01*
X012791Y004645D01*
X012695Y004741D01*
X012581Y004855D01*
X011811Y004855D01*
X011816Y004874D01*
X011816Y005055D01*
X011816Y005236D01*
X011804Y005282D01*
X011780Y005323D01*
X011746Y005357D01*
X011705Y005380D01*
X011660Y005392D01*
X011456Y005392D01*
X011456Y005055D01*
X011816Y005055D01*
X011456Y005055D01*
X011456Y005055D01*
X011456Y005055D01*
X011456Y005392D01*
X011252Y005392D01*
X011206Y005380D01*
X011166Y005357D01*
X011150Y005372D01*
X011012Y005372D01*
X010954Y005421D01*
X010793Y005407D01*
X010763Y005372D01*
X010658Y005372D01*
X010564Y005279D01*
X010564Y005250D01*
X010158Y005250D01*
X010122Y005265D01*
X009988Y005265D01*
X009865Y005214D01*
X009771Y005120D01*
X009720Y004997D01*
X009720Y004863D01*
X009723Y004855D01*
X009031Y004855D01*
X008988Y004898D01*
X009046Y004956D01*
X009046Y005404D01*
X008952Y005497D01*
X008460Y005497D01*
X008430Y005468D01*
X008400Y005497D01*
X007908Y005497D01*
X007814Y005404D01*
X007814Y005375D01*
X007709Y005375D01*
X007620Y005464D01*
X007497Y005515D01*
X007363Y005515D01*
X007240Y005464D01*
X007146Y005370D01*
X007137Y005348D01*
X007137Y005515D01*
X013119Y005515D01*
X013215Y005419D01*
X013215Y005293D01*
X013266Y005170D01*
X013360Y005076D01*
X013483Y005025D01*
X013617Y005025D01*
X013740Y005076D01*
X013834Y005170D01*
X013885Y005293D01*
X013885Y005427D01*
X013834Y005550D01*
X013740Y005644D01*
X013617Y005695D01*
X013491Y005695D01*
X013486Y005700D01*
X018444Y005700D01*
X017925Y005569D02*
X017456Y005569D01*
X017430Y005588D02*
X017363Y005622D01*
X017292Y005645D01*
X017218Y005657D01*
X017198Y005657D01*
X017198Y005198D01*
X017657Y005198D01*
X017657Y005218D01*
X017645Y005292D01*
X017622Y005363D01*
X017588Y005430D01*
X017544Y005491D01*
X017491Y005544D01*
X017430Y005588D01*
X017198Y005569D02*
X017162Y005569D01*
X017162Y005657D02*
X017142Y005657D01*
X017068Y005645D01*
X016997Y005622D01*
X016930Y005588D01*
X016869Y005544D01*
X016816Y005491D01*
X016772Y005430D01*
X016738Y005363D01*
X016715Y005292D01*
X016703Y005218D01*
X016703Y005198D01*
X017162Y005198D01*
X017162Y005657D01*
X016904Y005569D02*
X016435Y005569D01*
X016579Y005411D02*
X016762Y005411D01*
X016709Y005252D02*
X016637Y005252D01*
X017162Y005252D02*
X017198Y005252D01*
X017198Y005411D02*
X017162Y005411D01*
X017598Y005411D02*
X017781Y005411D01*
X017723Y005252D02*
X017651Y005252D01*
X017649Y005094D02*
X017723Y005094D01*
X017787Y004935D02*
X017590Y004935D01*
X016770Y004935D02*
X016573Y004935D01*
X016637Y005094D02*
X016711Y005094D01*
X015787Y004935D02*
X015637Y004935D01*
X015637Y005094D02*
X015723Y005094D01*
X015723Y005252D02*
X015637Y005252D01*
X015637Y005411D02*
X015781Y005411D01*
X015925Y005569D02*
X015611Y005569D01*
X014749Y005569D02*
X013815Y005569D01*
X013885Y005411D02*
X014723Y005411D01*
X014723Y005252D02*
X013868Y005252D01*
X013757Y005094D02*
X014723Y005094D01*
X014723Y004935D02*
X013399Y004935D01*
X013343Y005094D02*
X011816Y005094D01*
X011816Y004935D02*
X013001Y004935D01*
X012886Y004777D02*
X012659Y004777D01*
X012425Y004460D02*
X003566Y004460D01*
X003588Y004430D02*
X003544Y004491D01*
X003491Y004544D01*
X003430Y004588D01*
X003363Y004622D01*
X003292Y004645D01*
X003218Y004657D01*
X003198Y004657D01*
X003198Y004198D01*
X003162Y004198D01*
X003162Y004162D01*
X002703Y004162D01*
X002703Y004142D01*
X002715Y004068D01*
X002738Y003997D01*
X002772Y003930D01*
X002816Y003869D01*
X002869Y003816D01*
X002930Y003772D01*
X002997Y003738D01*
X003068Y003715D01*
X003142Y003703D01*
X003162Y003703D01*
X003162Y004162D01*
X003198Y004162D01*
X003198Y004198D01*
X003657Y004198D01*
X003657Y004218D01*
X003645Y004292D01*
X003622Y004363D01*
X003588Y004430D01*
X003371Y004618D02*
X008716Y004618D01*
X009025Y004935D02*
X009720Y004935D01*
X009760Y005094D02*
X009046Y005094D01*
X009046Y005252D02*
X009957Y005252D01*
X010153Y005252D02*
X010564Y005252D01*
X010829Y005411D02*
X009039Y005411D01*
X007821Y005411D02*
X007673Y005411D01*
X007187Y005411D02*
X007137Y005411D01*
X006223Y005411D02*
X006176Y005411D01*
X006137Y005252D02*
X006223Y005252D01*
X006223Y005094D02*
X006137Y005094D01*
X006073Y004935D02*
X006223Y004935D01*
X006264Y004777D02*
X005900Y004777D01*
X005460Y004777D02*
X000660Y004777D01*
X000660Y004935D02*
X004067Y004935D01*
X004044Y005094D02*
X000660Y005094D01*
X000660Y005252D02*
X004044Y005252D01*
X004058Y005411D02*
X000660Y005411D01*
X000660Y005569D02*
X005425Y005569D01*
X004404Y005411D02*
X004404Y005411D01*
X004404Y005252D02*
X004404Y005252D01*
X004404Y005094D02*
X004404Y005094D01*
X004404Y004935D02*
X004404Y004935D01*
X005275Y004935D02*
X005287Y004935D01*
X003642Y004301D02*
X012297Y004301D01*
X012184Y004143D02*
X010353Y004143D01*
X010512Y003984D02*
X012165Y003984D01*
X012231Y003826D02*
X010670Y003826D01*
X010119Y003826D02*
X007614Y003826D01*
X007637Y003667D02*
X010277Y003667D01*
X010436Y003509D02*
X007603Y003509D01*
X007554Y003350D02*
X007496Y003350D01*
X007396Y003192D02*
X004497Y003192D01*
X004505Y003206D02*
X004517Y003252D01*
X004517Y003456D01*
X004180Y003456D01*
X003843Y003456D01*
X003843Y003252D01*
X003855Y003206D01*
X003878Y003166D01*
X003863Y003150D01*
X003863Y002808D01*
X003617Y002563D01*
X003543Y002637D01*
X002817Y002637D01*
X002723Y002543D01*
X002723Y001817D01*
X002817Y001723D01*
X003543Y001723D01*
X003637Y001817D01*
X003637Y002031D01*
X003735Y002129D01*
X004170Y002564D01*
X004404Y002564D01*
X004497Y002658D01*
X004497Y003150D01*
X004482Y003166D01*
X004505Y003206D01*
X004517Y003350D02*
X005836Y003350D01*
X006162Y003350D02*
X006198Y003350D01*
X006524Y003350D02*
X006864Y003350D01*
X006757Y003509D02*
X006626Y003509D01*
X006723Y003667D02*
X006198Y003667D01*
X006162Y003667D02*
X004515Y003667D01*
X004517Y003509D02*
X005734Y003509D01*
X006162Y003509D02*
X006198Y003509D01*
X006634Y003826D02*
X006746Y003826D01*
X005726Y003826D02*
X004101Y003826D01*
X003708Y003984D02*
X003615Y003984D01*
X003622Y003997D02*
X003645Y004068D01*
X003657Y004142D01*
X003657Y004162D01*
X003198Y004162D01*
X003198Y003703D01*
X003218Y003703D01*
X003292Y003715D01*
X003363Y003738D01*
X003430Y003772D01*
X003491Y003816D01*
X003544Y003869D01*
X003588Y003930D01*
X003622Y003997D01*
X003550Y003826D02*
X003500Y003826D01*
X003198Y003826D02*
X003162Y003826D01*
X003162Y003984D02*
X003198Y003984D01*
X002860Y003826D02*
X000660Y003826D01*
X000660Y003984D02*
X002745Y003984D01*
X002703Y004143D02*
X000660Y004143D01*
X000660Y004301D02*
X002718Y004301D01*
X002715Y004292D02*
X002703Y004218D01*
X002703Y004198D01*
X003162Y004198D01*
X003162Y004657D01*
X003142Y004657D01*
X003068Y004645D01*
X002997Y004622D01*
X002930Y004588D01*
X002869Y004544D01*
X002816Y004491D01*
X002772Y004430D01*
X002738Y004363D01*
X002715Y004292D01*
X003162Y004301D02*
X003198Y004301D01*
X003198Y004143D02*
X003162Y004143D01*
X003657Y004143D02*
X003867Y004143D01*
X003198Y004460D02*
X003162Y004460D01*
X003162Y004618D02*
X003198Y004618D01*
X002989Y004618D02*
X000660Y004618D01*
X000660Y004460D02*
X002794Y004460D01*
X003391Y003667D02*
X000660Y003667D01*
X000660Y003509D02*
X002862Y003509D01*
X002756Y003350D02*
X000660Y003350D01*
X000660Y003192D02*
X002723Y003192D01*
X002746Y003033D02*
X000660Y003033D01*
X000660Y002875D02*
X002839Y002875D01*
X003521Y002875D02*
X003863Y002875D01*
X003770Y002716D02*
X000660Y002716D01*
X000660Y002558D02*
X002738Y002558D01*
X002723Y002399D02*
X000660Y002399D01*
X000660Y002241D02*
X002723Y002241D01*
X002723Y002082D02*
X000660Y002082D01*
X000660Y001924D02*
X002723Y001924D01*
X002775Y001765D02*
X000660Y001765D01*
X000660Y001607D02*
X005723Y001607D01*
X005782Y001448D02*
X000660Y001448D01*
X000660Y001290D02*
X005929Y001290D01*
X006578Y001448D02*
X006723Y001448D01*
X006723Y001607D02*
X006637Y001607D01*
X006637Y001765D02*
X006723Y001765D01*
X006723Y001924D02*
X006574Y001924D01*
X006403Y002082D02*
X006762Y002082D01*
X007047Y002241D02*
X006313Y002241D01*
X006271Y002223D02*
X006439Y002293D01*
X006567Y002421D01*
X006637Y002589D01*
X006637Y002771D01*
X006567Y002939D01*
X006439Y003067D01*
X006271Y003137D01*
X006089Y003137D01*
X005921Y003067D01*
X005793Y002939D01*
X005723Y002771D01*
X005723Y002589D01*
X005793Y002421D01*
X005921Y002293D01*
X006089Y002223D01*
X006271Y002223D01*
X006047Y002241D02*
X003846Y002241D01*
X003688Y002082D02*
X005957Y002082D01*
X005786Y001924D02*
X003637Y001924D01*
X003585Y001765D02*
X005723Y001765D01*
X007313Y002241D02*
X008004Y002241D01*
X007919Y002082D02*
X007598Y002082D01*
X007637Y001924D02*
X007919Y001924D01*
X007919Y001765D02*
X007637Y001765D01*
X007637Y001607D02*
X008027Y001607D01*
X008279Y001607D02*
X008279Y001607D01*
X008532Y001607D02*
X009336Y001607D01*
X009524Y001607D02*
X009666Y001607D01*
X009666Y001448D02*
X007637Y001448D01*
X007609Y001290D02*
X009666Y001290D01*
X008279Y001765D02*
X008279Y001765D01*
X008279Y001924D02*
X008279Y001924D01*
X008279Y002082D02*
X008279Y002082D01*
X008279Y002241D02*
X008279Y002241D01*
X008279Y002399D02*
X008279Y002399D01*
X008279Y002558D02*
X008279Y002558D01*
X007919Y002558D02*
X007624Y002558D01*
X007545Y002399D02*
X007919Y002399D01*
X007919Y002716D02*
X007637Y002716D01*
X007630Y002875D02*
X008020Y002875D01*
X008279Y002875D02*
X008279Y002875D01*
X008279Y002716D02*
X008279Y002716D01*
X008538Y002875D02*
X009666Y002875D01*
X009666Y002716D02*
X009615Y002716D01*
X009245Y002716D02*
X009171Y002716D01*
X009666Y003033D02*
X007789Y003033D01*
X006887Y003033D02*
X006473Y003033D01*
X006594Y002875D02*
X006766Y002875D01*
X006723Y002716D02*
X006637Y002716D01*
X006624Y002558D02*
X006736Y002558D01*
X006815Y002399D02*
X006545Y002399D01*
X005815Y002399D02*
X004005Y002399D01*
X004163Y002558D02*
X005736Y002558D01*
X005723Y002716D02*
X004497Y002716D01*
X004497Y002875D02*
X005766Y002875D01*
X005887Y003033D02*
X004497Y003033D01*
X003863Y003033D02*
X003614Y003033D01*
X003637Y003192D02*
X003863Y003192D01*
X003843Y003350D02*
X003626Y003350D01*
X003784Y003509D02*
X003843Y003509D01*
X004180Y003509D02*
X004180Y003509D01*
X004180Y003667D02*
X004180Y003667D01*
X009926Y002241D02*
X011284Y002241D01*
X011325Y002082D02*
X009963Y002082D01*
X010694Y001924D02*
X011403Y001924D01*
X013714Y001290D02*
X023200Y001290D01*
X023200Y001131D02*
X013840Y001131D01*
X013885Y000973D02*
X023200Y000973D01*
X023200Y000814D02*
X013875Y000814D01*
X012975Y000973D02*
X007103Y000973D01*
X011138Y003509D02*
X020218Y003509D01*
X020221Y003503D02*
X020255Y003469D01*
X020296Y003445D01*
X020341Y003433D01*
X020603Y003433D01*
X020603Y003851D01*
X020185Y003851D01*
X020185Y003589D01*
X020197Y003544D01*
X020221Y003503D01*
X020185Y003667D02*
X011027Y003667D01*
X013226Y003826D02*
X020185Y003826D01*
X020603Y003826D02*
X020757Y003826D01*
X020757Y003984D02*
X021811Y003984D01*
X021726Y003826D02*
X021175Y003826D01*
X020757Y003667D02*
X020603Y003667D01*
X020603Y003509D02*
X020757Y003509D01*
X020603Y003984D02*
X016312Y003984D01*
X015956Y003984D02*
X015956Y003984D01*
X015956Y003843D02*
X015956Y004180D01*
X016316Y004180D01*
X015956Y004180D01*
X015956Y004180D01*
X015956Y004180D01*
X015956Y003843D01*
X015956Y004143D02*
X015956Y004143D01*
X016316Y004143D02*
X020185Y004143D01*
X020194Y004301D02*
X016316Y004301D01*
X014527Y003984D02*
X013385Y003984D01*
X013543Y004143D02*
X014470Y004143D01*
X014493Y004301D02*
X013702Y004301D01*
X011456Y005094D02*
X011456Y005094D01*
X011456Y005252D02*
X011456Y005252D01*
X011812Y005252D02*
X013232Y005252D01*
X013215Y005411D02*
X010967Y005411D01*
X020603Y004301D02*
X020757Y004301D01*
X020757Y004143D02*
X020603Y004143D01*
X022162Y003984D02*
X022198Y003984D01*
X022198Y003826D02*
X022162Y003826D01*
M02*
