G75*
%MOIN*%
%OFA0B0*%
%FSLAX24Y24*%
%IPPOS*%
%LPD*%
%AMOC8*
5,1,8,0,0,1.08239X$1,22.5*
%
%ADD10C,0.0050*%
%ADD11C,0.0040*%
D10*
X003904Y002668D02*
X004456Y002668D01*
X004456Y003692D01*
X003904Y003692D01*
X003904Y002668D01*
X004003Y003121D02*
X004357Y003121D01*
X004357Y003239D02*
X004003Y003239D01*
X008043Y002831D02*
X008043Y002279D01*
X009067Y002279D01*
X009067Y002831D01*
X008043Y002831D01*
X008496Y002732D02*
X008496Y002378D01*
X008614Y002378D02*
X008614Y002732D01*
X009767Y002849D02*
X009767Y001511D01*
X009786Y001511D01*
X009067Y001654D02*
X009067Y002206D01*
X008043Y002206D01*
X008043Y001654D01*
X009067Y001654D01*
X008614Y001753D02*
X008614Y002107D01*
X008496Y002107D02*
X008496Y001753D01*
X009845Y001924D02*
X010534Y001924D01*
X010574Y001511D02*
X010593Y001511D01*
X010593Y002849D01*
X010574Y002849D01*
X009786Y002849D02*
X009767Y002849D01*
X009845Y002436D02*
X010515Y002436D01*
X015168Y003904D02*
X015168Y004456D01*
X016192Y004456D01*
X016192Y003904D01*
X015168Y003904D01*
X015621Y004003D02*
X015621Y004357D01*
X015739Y004357D02*
X015739Y004003D01*
X011692Y004779D02*
X011692Y005331D01*
X010668Y005331D01*
X010668Y004779D01*
X011692Y004779D01*
X011239Y004878D02*
X011239Y005232D01*
X011121Y005232D02*
X011121Y004878D01*
X008942Y004904D02*
X008942Y005456D01*
X007918Y005456D01*
X007918Y004904D01*
X008942Y004904D01*
X008489Y005003D02*
X008489Y005357D01*
X008371Y005357D02*
X008371Y005003D01*
X005192Y004904D02*
X005192Y005456D01*
X004168Y005456D01*
X004168Y004904D01*
X005192Y004904D01*
X004739Y005003D02*
X004739Y005357D01*
X004621Y005357D02*
X004621Y005003D01*
X020208Y004046D02*
X020208Y002314D01*
X020326Y002314D01*
X021034Y002314D02*
X021152Y002314D01*
X021152Y004046D01*
X021034Y004046D01*
X020326Y004046D02*
X020208Y004046D01*
X020365Y003495D02*
X020995Y003495D01*
X020995Y002865D02*
X020365Y002865D01*
D11*
X021291Y002830D02*
X021751Y002830D01*
X021597Y002676D01*
X021291Y002676D02*
X021291Y002983D01*
X021367Y002523D02*
X021291Y002446D01*
X021291Y002292D01*
X021367Y002216D01*
X021674Y002216D01*
X021751Y002292D01*
X021751Y002446D01*
X021674Y002523D01*
X020430Y002007D02*
X020430Y001700D01*
X020277Y001853D02*
X020584Y001853D01*
X016160Y003402D02*
X016083Y003325D01*
X015930Y003325D01*
X015853Y003402D01*
X015700Y003402D02*
X015623Y003325D01*
X015469Y003325D01*
X015393Y003402D01*
X015393Y003478D01*
X015469Y003555D01*
X015623Y003555D01*
X015700Y003632D01*
X015700Y003709D01*
X015623Y003785D01*
X015469Y003785D01*
X015393Y003709D01*
X015393Y003632D01*
X015469Y003555D01*
X015623Y003555D02*
X015700Y003478D01*
X015700Y003402D01*
X016160Y003402D02*
X016160Y003709D01*
X016083Y003785D01*
X015930Y003785D01*
X015853Y003709D01*
X011490Y004258D02*
X011414Y004181D01*
X011260Y004181D01*
X011183Y004258D01*
X011030Y004258D02*
X011030Y004181D01*
X011030Y004258D02*
X010723Y004565D01*
X010723Y004642D01*
X011030Y004642D01*
X011183Y004565D02*
X011260Y004642D01*
X011414Y004642D01*
X011490Y004565D01*
X011490Y004258D01*
X009166Y003502D02*
X009166Y003195D01*
X009166Y003348D02*
X009626Y003348D01*
X009472Y003195D01*
X008990Y003315D02*
X008990Y003008D01*
X008914Y002931D01*
X008760Y002931D01*
X008683Y003008D01*
X008530Y003008D02*
X008453Y002931D01*
X008300Y002931D01*
X008223Y003008D01*
X008223Y003161D01*
X008300Y003238D01*
X008376Y003238D01*
X008530Y003161D01*
X008530Y003392D01*
X008223Y003392D01*
X008683Y003315D02*
X008760Y003392D01*
X008914Y003392D01*
X008990Y003315D01*
X009166Y003041D02*
X009626Y002734D01*
X009626Y003041D02*
X009166Y002734D01*
X008924Y001554D02*
X008770Y001554D01*
X008694Y001477D01*
X008540Y001324D02*
X008387Y001477D01*
X008233Y001554D01*
X008310Y001324D02*
X008540Y001324D01*
X008540Y001170D01*
X008463Y001094D01*
X008310Y001094D01*
X008233Y001170D01*
X008233Y001247D01*
X008310Y001324D01*
X008694Y001170D02*
X008770Y001094D01*
X008924Y001094D01*
X009001Y001170D01*
X009001Y001477D01*
X008924Y001554D01*
X005035Y002777D02*
X004959Y002700D01*
X004652Y002700D01*
X004575Y002777D01*
X004575Y002930D01*
X004652Y003007D01*
X004652Y003160D02*
X004575Y003237D01*
X004575Y003391D01*
X004652Y003467D01*
X004959Y003467D01*
X005035Y003391D01*
X005035Y003237D01*
X004959Y003160D01*
X004882Y003160D01*
X004805Y003237D01*
X004805Y003467D01*
X004959Y003007D02*
X005035Y002930D01*
X005035Y002777D01*
X005160Y004325D02*
X005160Y004785D01*
X004930Y004785D01*
X004853Y004709D01*
X004853Y004555D01*
X004930Y004478D01*
X005160Y004478D01*
X005007Y004478D02*
X004853Y004325D01*
X004700Y004402D02*
X004623Y004325D01*
X004469Y004325D01*
X004393Y004402D01*
X004393Y004478D01*
X004469Y004555D01*
X004546Y004555D01*
X004469Y004555D02*
X004393Y004632D01*
X004393Y004709D01*
X004469Y004785D01*
X004623Y004785D01*
X004700Y004709D01*
X008143Y004709D02*
X008219Y004785D01*
X008373Y004785D01*
X008450Y004709D01*
X008603Y004709D02*
X008603Y004555D01*
X008680Y004478D01*
X008910Y004478D01*
X008910Y004325D02*
X008910Y004785D01*
X008680Y004785D01*
X008603Y004709D01*
X008450Y004325D02*
X008143Y004632D01*
X008143Y004709D01*
X008603Y004325D02*
X008757Y004478D01*
X008450Y004325D02*
X008143Y004325D01*
M02*
